<?xml version="1.0" encoding="UTF-8"?>
<svg version="1.1" viewBox="0 0 1550 1600" width="471" height="486" xmlns="http://www.w3.org/2000/svg">
<path transform="translate(0)" d="m0 0h1550v1600h-1550z" fill="#F6F7FC"/>
<path transform="translate(710,385)" d="m0 0h17l6 2 13 1 10 4 8 9 12 25 26 56 13 27 7 16 7 15 12 26 2 4 2 1v2l4 2 8 6 3 1 5 5 32 24 3 1 5 5 5 4 3 1 1 2 3 1 5 5 13 10 3 3 3 1 1 2 3 1 3 3 5 4 3 3 3 1 5 5 5 4 3 1 1 2 3 1 5 5 4 2 1 2 3 1v2l4 2 5 4 8 5 5 5 10 7 8 7 18 13 11 9 15 12 16 12 13 10 14 10 13 10 28 21 12 11 3 6 1 5v45l-3 6-8 8-6 2-1 3-9 4-11 7-5 3-7 4h-2v2l-5 3h-3v2l-8 4-5 3h-2v2l-11 6-3 3-10 5-5 4-7 3-10 7-7 4-19 12-8 5-6 2v2l-9 5-12 7-7 5-5 2-6 5-7 3-15 9-11 7-9 5-15 9h-2v2l-9 5-10 6h-2v2l-8 4-17 11-9 6-11 6-12 7h-2v2l-14 6-5 2-6 1h-15l-11-3-15-9-18-14-10-7-9-7-17-13-9-6-4-4-5-4-3-1v-2l-4-1v-2l-4-1v-2l-4-1v-2h-3l-1-2-3-1-5-5-12-9-4-2v-2l-4-1v-2h-3l-5-5-3-1-1-2-3-1-5-5-9-7-3-1-1-2-3-1-1-2-3-1-5-5-3-1v-2l-4-1v-2l-4-1-5-5-8-6-3-1-1-2-3-1-1-2-3-1-1-2-3-1-1-2-3-1-1-2-3-1-2-3-3-1-1-2-3-1-1-2-3-1-1-2-4-2-1-2-3-1-1-2-3-1-1-2-3-1-1-2-7-4-5-5-8-6-7-4-4-5-6-3-5-5-8-6-5-3-5-5-5-4-3-1-3-3-8-7-5-3-7-8-6-7v-2h-2l-3-7-1-4h-2l-3-10h-2l-6-15v-2h-2l-6-13-4-10-2-6h-2l-5-13-1-3-2-1-3-9v-2h-2l-5-11-2-8h-2l-4-9-3-10h-2l-6-15v-2h-2l-4-11v-2h-2l-5-13v-14l1-11 3-7h2l1-5 8-7 3-3h2v-2l3-1 1-2h3v-2l5-1v-2h3v-2h3v-2l6-3 4-1v-2l6-3h2v-2l9-5h2v-2h3v-2l5-1v-2l6-3h2v-2h3v-2l10-5 13-8h2v-2l5-1v-2h3v-2l13-7 5-2v-2h3v-2l5-1v-2l5-1v-2l6-3h2v-2h3v-2l6-3h2v-2h3v-2l11-6 5-3h2v-2h3v-2l5-1v-2h3v-2l5-1v-2h3v-2l5-1v-2l5-1v-2l8-4 8-5h2v-2l5-1v-2h3v-2l8-4h2v-2l14-8h2v-2l5-1v-2h3v-2h3v-2l6-3h2v-2l5-3h3v-2l8-4h2v-2l6-3h2v-2l5-3h3v-2l6-3h2v-2h3v-2l10-5 3-3h3v-2l6-3z" fill="#5D5CF3"/>
<path transform="translate(1117,1042)" d="m0 0h10l12 5 2 1v2l5 1v2l5 2 3 1v2l5 2 21 13 6 3v2l5 1v2l5 1v2l5 1v2l5 2 13 8 40 25 3 1v2l5 2 22 13 15 9 10 9 3 8v220l-3 6-8 7h-3v2l-9 5-20 12-10 7-9 5-2 2-7 3-5 3h-2v2l-8 4-11 7-9 6-12 6-3 3-11 6-5 3h-3v2l-10 5-15 9h-2v2l-11 6-9 4-7 2h-6l-17-10-3-1v-2l-5-1v-2l-5-2-20-12-6-3v-2l-5-2-3-1v-2l-5-2-15-9-7-4-15-10-8-4v-2h-3v-2l-5-2-6-3v-2l-5-1v-2l-6-2-2-1v-2l-5-1-3-3-20-12-11-8-5-4-2-4v-219l1-9 7-7 13-8 25-15 16-10 17-10 16-10 14-8 19-12 14-8 14-9 12-8 12-7z" fill="#5C5BF3"/>
<path transform="translate(584,40)" d="m0 0h13l7 3 6 5 4 5 2 6 1 14v224l-1 22-3 16-6 16-9 17-9 11-7 7-15 10-21 12-15 9-11 6-13 8-23 14-20 12-22 13-16 10-11 6-21 13-15 9-17 10-28 17-14 8-15 6h-9l-9-4v-2l-4-1-4-5-3-8-1-5-1-17v-241l2-15 4-11h2l1-6h2v-3h2l1-5h2l1-4 4-4 5-6 4-3h2v-2l5-3h2v-2l5-1v-2l5-3 1-5 5 1h3l9-6 5-2 3-3h3v-2h3v-2h3v-2l6-3h2v-2l14-8h2v-2l5-3h3v-2l5-3h3v-2l5-1v-2l7-4 6-4h3v-2l5-1v-2l5-1v-2h3v-2l5-1v-2l5-1v-2l5-1v-2l5-1v-2l5-1v-2l5-1v-2h3v-2l7-2v-2h3v-2l5-1v-2l5-1v-2l5-1v-2l10-5 10-6h2v-2l9-5 10-6h2v-2l5-1v-2h3v-2l5-3h3v-2l5-1v-2h3v-2h3v-2l4-2h3v-2l14-6z" fill="#F6F7FC"/>
<path transform="translate(733,389)" d="m0 0h16l8 4 7 8 12 25 26 56 13 27 7 16 7 15 11 24v5l-11 8-22 13-24 15-19 12-10 6-23 14-16 10-17 10-21 13-29 17-11 7-18 11-15 10-18 11-16 9-10 6-16 10-17 11-23 14-21 13-29 17-5 1-6-10-15-31-13-28-16-34-13-28-10-21-5-16v-8l2-9 6-11 9-8 18-11 25-16 46-28 19-12 26-16 23-14 15-9 26-16 18-11 40-25 18-11 23-14 38-24z" fill="#3932C8"/>
<path transform="translate(1248,248)" d="m0 0 5 2 20 11 12 8 12 9 16 16 10 15 7 15 4 13 1 7v114l-5 17-8 15-10 13-13 13h-2l-1 3-4 1v2l-4 1v2l-14 8h-2v2l-5 3-11 4-7 4-6 2-14 5-23 6-21 3-22 2h-40l-21-2-8-2-14-3-25-7-8-4-11-5-12-6-15-10-13-11-4-4 1-8v-79l4-3 24-9 42-18 26-11 37-15 17-8 10-9 18-18 7-8 10-10 9-11 7-7 7-8 4-5h2l2-4 15-16 1-2h2l2-4 5-6z" fill="#5C5BF3"/>
<path transform="translate(1125,172)" d="m0 0h35l27 3 29 6 27 9 6 4 1 11v43l-4 3h-2l-2 4-5 6h-2l-2 4-7 7-7 8-2 3h-2l-2 4-7 7-7 8-9 10-7 8-7 7-2 3h-2l-2 4-24 24-16 8-21 9-22 9-45 19-36 15-11 4-1 1-1 78-5-1-6-4-7-7-6-10-4-9-2-9-1-9v-112l4-15 8-16 7-11 14-15 2-3 1-65 11-8 18-10 25-10 20-6 17-4 26-4z" fill="#FDBF83"/>
<path transform="translate(1313,1163)" d="m0 0 3 1 1 2v220l-3 6-8 7h-3v2l-9 5-20 12-10 7-9 5-2 2-7 3-5 3h-2v2l-8 4-11 7-9 6-12 6-3 3-11 6-5 3h-3v2l-10 5-15 9h-2v2l-11 6-11 4h-3l-3-6-1-217 27-18 14-8 18-11 59-35 46-28 15-9z" fill="#3A33C9"/>
<path transform="translate(728,438)" d="m0 0h2l7 17 5 10 3 8 3 5 4 10 8 15 6 16 5 10 4 11v5l-9 6-9 3v2l-5 1v2h-3v2l-5 3h-3v2h-3v2h-3v2l-5 1v2h-3v2h-3v2h-3v2h-3v2h-3v2l-7 4h-3v2l-5 1v2h-3v2l-5 3h-3v2l-5 1-1 3-17 10h-3v2l-5 1v2h-3v2l-17 10-21 13-3 2h-3v2l-15 9h-3v2l-5 1v2l-5 1v2h-3v2l-4 2h-3v2l-7 2v2l-25 15-4 1v2l-5 3h-3v2l-16 10-6 3-11 7h-3v2l-7 4h-3v2l-12 7h-3v2l-5 3h-3v2l-4-1-12-25-8-18-19-40-5-12-1-10 7-6h2v-2l9-5 12-7 11-7 9-5 9-6 9-5 9-6 7-4 11-7 6-2v-2l6-3 6-4 9-5 13-8 6-4h3v-2l8-4 10-7 7-4 12-8 9-5 4-3h3v-2l12-7 11-6 8-5 15-9 14-9 6-2v-2l6-3 6-4h3v-2l9-5h2v-2l14-9h3v-2l7-4z" fill="#F6F7FC"/>
<path transform="translate(938,1150)" d="m0 0 2 1-7 7 1 4 6-3 1 3v5l19 12 26 16 63 39 41 25 21 13 8 6 1 2 1 13v212l-6-1-15-9-3-1v-2l-5-1v-2l-5-2-20-12-6-3v-2l-5-2-3-1v-2l-5-2-15-9-7-4-15-10-8-4v-2h-3v-2l-5-2-6-3v-2l-5-1v-2l-6-2-2-1v-2l-5-1-3-3-20-12-11-8-5-4-2-4v-219l1-9z" fill="#7B7FF4"/>
<path transform="translate(1252,603)" d="m0 0 7 1 21 13 15 10 24 15 20 13 24 15 28 17 14 9 10 10 6 12 3 12 1 9v48l-1 29-6 7-26 15-17 10h-6l-15-8-24-15-34-22-42-26-20-12-12-8-10-9-7-14-2-9v-81l2-9 11-8 18-12 13-9z" fill="#FDBF83"/>
<path transform="translate(289,977)" d="m0 0h15l12 3 16 8 14 9 13 11 7 7 11 14 9 14 10 19 7 21 4 21 1 10v21l-3 16-5 13-8 10-5 4-7 5-6 3-11 7-10 5-9 4h-18l-15-3v-2l-7-1-21-12-1-2-4-2-10-10-10-12-6-6-5-9-1-3h-2l-1-5h-2l-3-9h-2l-1-6h-2l-3-10v-3h-2l-4-14-2-13-1-1v-35l3-10 2-10h2l1-6 1-2h2v-3h2v-3l7-6 3-3 6-2v-2l11-6 13-8 8-4z" fill="#7B7EF4"/>
<path transform="translate(477,1260)" d="m0 0h18l13 4 16 8 12 9 14 12 9 10 10 14 9 15 9 19 6 20 3 17 1 10v20l-3 15-3 10-6 11-7 7h-2v2l-20 11-8 5-13 5-5 2h-16l-14-4-18-10-8-5-1-2-3-1-16-16-8-10-1-3h-2l-4-7-7-10-6-13v-2h-2l-4-12-4-9v-8h-2l-3-17v-32l1-5h2l1-7 3-10 1-2h2l1-4 5-5 6-7 7-4 13-9 13-8z" fill="#7B7EF4"/>
<path transform="translate(1333,374)" d="m0 0h2v84l-5 17-8 15-10 13-13 13h-2l-1 3-4 1v2l-4 1v2l-14 8h-2v2l-5 3-11 4-7 4-6 2-14 5-23 6-21 3-22 2h-40l-21-2-8-2-14-3-25-7-8-4-11-5-12-6-15-10-13-11-4-4 1-4 1-71 1-10 2 1v2l6 2 10 8 13 8 19 9 20 7 22 6 24 4 25 2h21l24-2 26-4 23-6 19-7 21-10 18-12 11-9 6-5 7-8 10-14 7-14z" fill="#3932C8"/>
<path transform="translate(710,385)" d="m0 0h17l6 2 13 1v1l-13 1-10 7-19 12-24 15-20 12-24 15-21 13-19 12-20 12-18 11-46 28-48 30-22 13-22 14-19 12-14 9-7 6-7 14-1 6v8l5 16 13 27 26 56 19 40 12 25 6 8 10 8 16 12 21 16 18 14 13 10 21 16 16 12 14 11 13 10 19 14 12 9 73 56 26 20 12 9 13 10 6 4v2l5 2 12 9 1 2-9 2 4 7v8l-6-1-5-1-3 1-4-2v-2l-5-2-4-3-4-2v-2l-4-1-4-3-3 1-13-10-9-6-4-4-5-4-3-1v-2l-4-1v-2l-4-1v-2l-4-1v-2h-3l-1-2-3-1-5-5-12-9-4-2v-2l-4-1v-2h-3l-5-5-3-1-1-2-3-1-5-5-9-7-3-1-1-2-3-1-1-2-3-1-5-5-3-1v-2l-4-1v-2l-4-1-5-5-8-6-3-1-1-2-3-1-1-2-3-1-1-2-3-1-1-2-3-1-1-2-3-1-2-3-3-1-1-2-3-1-1-2-3-1-1-2-4-2-1-2-3-1-1-2-3-1-1-2-3-1-1-2-7-4-5-5-8-6-7-4-4-5-6-3-5-5-8-6-5-3-5-5-5-4-3-1-3-3-8-7-5-3-7-8-6-7v-2h-2l-3-7-1-4h-2l-3-10h-2l-6-15v-2h-2l-6-13-4-10-2-6h-2l-5-13-1-3-2-1-3-9v-2h-2l-5-11-2-8h-2l-4-9-3-10h-2l-6-15v-2h-2l-4-11v-2h-2l-5-13v-14l1-11 3-7h2l1-5 8-7 3-3h2v-2l3-1 1-2h3v-2l5-1v-2h3v-2h3v-2l6-3 4-1v-2l6-3h2v-2l9-5h2v-2h3v-2l5-1v-2l6-3h2v-2h3v-2l10-5 13-8h2v-2l5-1v-2h3v-2l13-7 5-2v-2h3v-2l5-1v-2l5-1v-2l6-3h2v-2h3v-2l6-3h2v-2h3v-2l11-6 5-3h2v-2h3v-2l5-1v-2h3v-2l5-1v-2h3v-2l5-1v-2l5-1v-2l8-4 8-5h2v-2l5-1v-2h3v-2l8-4h2v-2l14-8h2v-2l5-1v-2h3v-2h3v-2l6-3h2v-2l5-3h3v-2l8-4h2v-2l6-3h2v-2l5-3h3v-2l6-3h2v-2h3v-2l10-5 3-3h3v-2l6-3z" fill="#7B7FF4"/>
<path transform="translate(537,112)" d="m0 0 5 2 24 16 11 7v132l1 62 1 18-12 9-22 13-11 6-6-1-21-14-11-7-1-1v-216l10-6 15-10z" fill="#F98067"/>
<path transform="translate(196,729)" d="m0 0h24l21 5 15 9 12 11 8 11 7 14 4 16v18l-3 14-5 12-5 9-2 3h-2l-2 5-5 5-6 5h-2v2l-6 4-7 4-13 5-14 2h-24l-11-4-9-4-13-9-9-9-6-9v-2h-2l-5-11-4-12-1-5v-22l1-5h2v-7l5-12 2-4h2l2-6 2-3h2l1-4 7-6 1-2 4-2 1-2h3v-2l5-1v-2l9-4z" fill="#7B7FF4"/>
<path transform="translate(1007,274)" d="m0 0h7l14 9 21 11 23 13 27 16 25 14 11 7 5 5-1 7-2 5 2 1-20 9-30 12-28 12-45 19-21 8-1 1-1 78-5-1-6-4-7-7-6-10-4-9-2-9-1-9v-112l4-15 8-16 7-11 14-15 4-5z" fill="#F56F9B"/>
<path transform="translate(499,1103)" d="m0 0 7 1 9 8 7 10 6 12 1 6-6 8-5 6-5 5-8 9-5 5-4 5-5 5-4 5-5 5-7 8-1 2h-2l-2 4-2 3h-2l-2 4-5 6h-2l-2 4-2 3h-2l-2 4-9 10-3 4h-2l-2 4-3 4h-2l-2 4-2 3h-2l-2 4-4 5h-2l-2 4-5 5-5 7-5 5-3 4h-2l-2 4-3 4h-2l-2 4-2 3h-2l-2 4-2 3h-2l-2 4-4 5-13 13-8 6-11 6-7 5h-3v2h-6l-5-2v-2l-4-2-8-8-10-15-1-3v-7l11-12 3-5 5-4 7-8 4-6 10-10 14-15 3-5 10-10 2-4 8-7 4-6 10-10 4-6 6-5 3-5 3-3 7-8 10-11 3-5 6-5 4-6 5-4 3-5h2v-2l6-5 1-3 5-4 4-6 6-5 5-5 7-6 18-10z" fill="#7B7FF4"/>
<path transform="translate(728,438)" d="m0 0h2l7 17 5 10 3 8 3 5 4 10 8 15 6 16 5 10 4 11v5l-9 6-9 3v2l-5 1v2h-3v2l-5 3h-3v2h-3v2h-3v2l-5 1v2h-3v2h-3v2h-3v2h-2l-2-5-5-5v-2l-10 1-5 4-4 1 1 3-3 2-9-1-8-7-1-3h-2l-3-6-5-5-4-5-5-8-4-2h-14l-12 1-25 1-7 1-3-6 1-2-16 8-15 9-11 8-2 2 2 7-5 6-6 3-5 5-6 3-6 2h-11v-2l-16 6-17 7-18 10-14 10-10 9-5 5-2 18h-2l1-5h-2v-12l9-11 1-7 12-7 15-9 9-6 9-5 9-6 7-4 11-7 6-2v-2l6-3 6-4 9-5 13-8 6-4h3v-2l8-4 10-7 7-4 12-8 9-5 4-3h3v-2l12-7 11-6 8-5 15-9 14-9 6-2v-2l6-3 6-4h3v-2l9-5h2v-2l14-9h3v-2l7-4z" fill="#F3FBFE"/>
<path transform="translate(441,241)" d="m0 0 4 2 17 11 11 7 9 6v139l-8 6-12 6-17 11-8 5-4-1-11-7-14-10-3-1v-2h-3v-2l-4-2v-141l14-9 21-13z" fill="#7A7EF4"/>
<path transform="translate(1252,603)" d="m0 0 7 1 21 13 15 10 24 15 20 13 24 15 28 17 14 9 10 10 6 12 3 12 1 9v48l-1 29-6 7-26 15-7 4h-4l-1-63-1-26-2-10-5-10-7-7-17-12-13-8-19-12-26-16-22-14-21-14-11-6-17-10-6-3v-2l21-14 13-9z" fill="#FC8E60"/>
<path transform="translate(1171,844)" d="m0 0h1l1 12v21l-3 6-8 8-6 2-1 3-9 4-11 7-5 3-7 4h-2v2l-5 3h-3v2l-8 4-5 3h-2v2l-11 6-3 3-10 5-5 4-7 3-10 7-7 4-19 12-8 5-6 2v2l-9 5-12 7-7 5-5 2-6 5-7 3-15 9-11 7-9 5-15 9h-2v2l-9 5-10 6h-2v2l-8 4-17 11-9 6-11 6-12 7h-2v2l-14 6-1 1h-16l-8-4-2-5 1-4-3-7 1-10 1-4 20-1 16-6 27-16 18-11 16-10 17-11 15-9 16-9 20-12 17-11 39-24 22-13 14-9 26-16 20-12 21-13 15-9 18-11 12-8 6-5z" fill="#3932C8"/>
<path transform="translate(1247,196)" d="m0 0h2l1 9v43l-4 3h-2l-2 4-5 6h-2l-2 4-7 7-7 8-2 3h-2l-2 4-7 7-7 8-9 10-7 8-7 7-2 3h-2l-2 4-24 24-5 3h-4l2-11-1-3-11-7-14-8-23-13-15-9-21-12-22-12-14-8-4-3h-7l-5 3-3-1v-61l5 2 10 6 26 15 19 12 32 19 28 17 22 13h5l6-7h2l2-4 9-9 7-8 15-15 7-8 19-19 7-8 10-10 7-8 8-7z" fill="#FC8E60"/>
<path transform="translate(1011,744)" d="m0 0 5 1 15 10 18 14 38 28 14 11 13 10 4 4v15l-6 7-23 13-20 12-12 6h-6l-13-7-13-10-12-10-13-10-12-10-10-8-11-9-10-9-5-5-3-7 1-9 8-7 25-15 23-13z" fill="#FDBF84"/>
<path transform="translate(916,19)" d="m0 0h8l10 5 7 7 5 10 1 11 1 17 1 7 6 2 9 6 8 8 6 11 2 8v7l-4 8-8 6-18 10-6 4-6 1-8 5-16 8-7 3h-6l-9-6-10-9-3-5-1-39-5-2-16-10-4-3v-2l-3-1-3-5-1-5v-16l3-7 16-10 13-6 10-2 25-15z" fill="#F66F9B"/>
<path transform="translate(537,112)" d="m0 0 5 2 24 16 10 6-5 4-21 12-14 9-4 2-2 202-4 2-2 5 5 2 1 2-5-2-18-12-11-7-1-1v-216l10-6 15-10z" fill="#FDBF83"/>
<path transform="translate(701,1199)" d="m0 0 7 1 16 10 22 14 24 15 33 21 7 8 3 11v14l-4 7-24 14-7 3-8-1-18-11-20-13-19-12-24-14-12-8-7-8-2-5-1-8v-10l3-9 5-4 18-10z" fill="#F66F9B"/>
<path transform="translate(346,356)" d="m0 0 5 1 17 10 17 11 2 2 1 39v43l-37 24-8 5-6-1-32-20v-88l23-15z" fill="#FDBF83"/>
<path transform="translate(477,1260)" d="m0 0h18l13 4 16 8 12 9 14 12 9 10 10 14 9 15 9 19 6 20 3 17 1 10v20l-3 15-3 10-6 11-7 7h-2v2l-20 11-3-1 6-12 4-13 2-14v-20l-3-20-6-20-8-19-10-17-9-12-12-13-13-11-16-10-13-6-14-4-17-1 3-5 15-10 11-5z" fill="#3A33C9"/>
<path transform="translate(289,977)" d="m0 0h15l12 3 16 8 14 9 13 11 7 7 11 14 9 14 10 19 7 21 4 21 1 10v21l-3 16-5 13-8 10-5 4-7 5-6 3-7 3-1-2 7-20 3-15v-22l-3-19-6-21-5-12-10-19-10-14-9-10-11-11-17-12-19-10-13-4-14-1h-4l2-4 20-12z" fill="#3A33C9"/>
<path transform="translate(729,187)" d="m0 0 5 1 16 10 14 9v2l6 2 18 12 17 11 5 3v2l4 1 5 6 4 10v16l-3 6-11 8-11 6-9 5h-6l-14-9-15-10-17-11-16-10-16-11-5-5-3-5-1-10v-9l1-9 5-5 17-10z" fill="#D94D86"/>
<path transform="translate(620,734)" d="m0 0 6 1 11 6 14 11 3 6-2 11-7 8-14 8-21 13-16 10-17 11-21 12-8 4-7-1-16-12-7-7-2-5v-9l3-6 10-6 16-9 9-6 19-12 13-8 22-13 11-6z" fill="#FC9C5E"/>
<path transform="translate(251,743)" d="m0 0h5l12 11 8 11 7 14 4 16v18l-3 14-5 12-5 9-2 3h-2l-2 5-5 5-6 5h-2v2l-6 4-7 4-13 5-14 2h-24l-11-4-9-4-4-4 2-1 4 1 5-4 8-5 1-2 5-3 7-5 12-6 9-8 10-10 4-5 3-7h2l3-9 5-16 2-9v-25l2-7z" fill="#3A33C9"/>
<path transform="translate(477,267)" d="m0 0h5v139l-8 6-12 6-17 11-4 3h-3l-1-8v-131l17-11 19-12z" fill="#3932C8"/>
<path transform="translate(584,40)" d="m0 0h13l7 3 6 5 4 5 2 6 1 14v224l-1 22-3 16-6 16-9 17-9 11-7 7-15 10-21 12-15 9-11 6-13 8-23 14-20 12-22 13-16 10-11 6-21 13-15 9-17 10-28 17-14 8-15 6h-9l-9-4v-2l-4-1-4-5-3-8-1-5-1-17v-241l2-15 4-11h2l1-6h2v-3h2l1-5h2l1-4 4-4 5-6 4-3h2v-2l5-3h2v-2l5-1v-2l5-3 1-5 5 1h3l9-6 5-2 3-3h3v-2h3v-2h3v-2l6-3h2v-2l14-8h2v-2l5-3h3v-2l5-3h3v-2l5-1v-2l7-4 6-4h3v-2l5-1v-2l5-1v-2h3v-2l5-1v-2l5-1v-2l5-1v-2l5-1v-2l5-1v-2l5-1v-2h3v-2l7-2v-2h3v-2l5-1v-2l5-1v-2l5-1v-2l10-5 10-6h2v-2l9-5 10-6h2v-2l5-1v-2h3v-2l5-3h3v-2l5-1v-2h3v-2h3v-2l4-2h3v-2l14-6zm1 4-6 2-8 4-5 2v2l-6 2-6 3v2l-4 1-4 2v2l-5 1-3 2v2l-5 1v2l-7 2-4 3v2l-5 1-5 4-5 2-10 6v2l-5 1-3 2v2l-9 3-7 5-6 3v2l-9 3-1 3-7 2-9 6v2l-5 1-18 11v2h-3v2l-5 1v2l-5 1-8 5v2l-5 1v2h-3v2l-5 1-3 2v2l-5 1-9 6-9 5v2l-5 2-6 3v2l-5 2-14 9v8h-4l1-6-5 1-3 2v2l-6 2-5 4v2l-4 2-1 3-4 2-4 5v3h-2v3h-2l-4 8v3h-2l-3 10-1 7-1 31v215l1 18 4 11 5 6 7 3h12l16-8 16-9 12-8 11-6 15-9 22-13 13-8 25-15 23-14 15-9 22-13 29-17 25-15 17-10 13-10 9-10 9-14 7-14 4-13 2-14 1-228-1-27-2-7-5-5-6-4z" fill="#A5ADFD"/>
<path transform="translate(801,702)" d="m0 0h6l18 10 12 9 7 8v2h2l1 8-1 7-6 5-5 3-5 4h-3l-2 4-6 4-10 4-13 8-8 4-9-1-9-4-5-4-4-4-10-8-9-9-1-2v-8l4-6 24-15 15-10 14-8z" fill="#BDC3FD"/>
<path transform="translate(990,844)" d="m0 0 5 1 17 12 15 10 3 4v20l-10 7-19 12-15 9-9 5h-9l-15-9-22-15-3-4-1-6v-6l4-6 18-12 16-10 16-8z" fill="#BDC3FD"/>
<path transform="translate(702,852)" d="m0 0 6 1 15 8 14 9 6 5 3 8v10l-3 6-10 7-29 17-14 7-9 1-12-7-12-9-10-8-2-3-1-16 8-7 18-11 19-12z" fill="#BDC3FD"/>
<path transform="translate(999,216)" d="m0 0 5 2 10 6 26 15 19 12 32 19 2 2-2 2 6 5 10 6 1 3 4 2 4 4 1 8 3 1v2l-9-1-3 2v-6l-10 6-2 1 5 1-3 7-3 1v-2l-5 1-15-7-7-2-16-9-18-10-16-9-4-3h-7l-5 3-3-1z" fill="#FC9D5E"/>
<path transform="translate(907,898)" d="m0 0 5 1 17 9 14 10 4 4 2 10-1 12-10 7-17 11-9 5-15 9-2 1h-6l-13-7-15-12-9-7-5-8v-10l5-5 18-11 27-15z" fill="#BDC3FD"/>
<path transform="translate(886,647)" d="m0 0 7 1 21 16 10 8 3 5 1 9-2 7-7 6-41 25-6 3h-7l-16-8-14-10-10-10-2-4v-5l9-10 16-10 11-7 21-13z" fill="#BDC3FD"/>
<path transform="translate(732,435)" d="m0 0 6 2 7 8 10 21 9 20 16 37 6 16v9l-9 8-26 15-19 12-26 17-21 13-22 13-14 9-24 15-21 13-22 13-21 13-20 12-24 15-21 13-16 9-13 7-6-1-4-5h3v-2l6-3h2v-2l10-5 5-2v-2l8-4h2v-2l10-5 7-5 11-6 6-4h2v-2l6-3h2v-2l21-12 6-4h2v-2l7-2v-2l7-2v-2h3v-2l5-1v-2l5-1v-2l8-4 8-5h2v-2l11-6 13-8 18-11h2v-2h3v-2l5-1v-2l10-5 10-6 3-3h3v-2l6-3h2v-2h3v-2l5-1v-2l8-4h2v-2h3v-2h3v-2h3v-2h3v-2h3v-2l5-1v-2h3v-2h3v-2l6-3h2v-2h3v-2l5-1v-2l16-8 1-1-1-9-5-10-4-10-7-17-9-17-3-8-3-5-3-7-4-9-5-13v-2l-4 1 1-2z" fill="#797DF4"/>
<path transform="translate(843,850)" d="m0 0 7 1 15 8 14 10 7 7 1 2v15l-9 6-17 10-10 7-9 6h-2l-1 3-7 4h-7l-14-7-14-11-5-5-6-5-3-6 1-9h2l2-4 15-10 23-14 14-7z" fill="#BDC3FD"/>
<path transform="translate(823,948)" d="m0 0h7l11 6 16 10 7 6 3 6v14l-4 5-6 4-17 11-15 9-13 7-6 1-9-4-15-10-13-11-2-3v-13l4-6 15-11 21-13z" fill="#BDC3FD"/>
<path transform="translate(952,696)" d="m0 0 5 1 12 8 17 13 5 5 1 4v11l-9 6-15 9-9 2-28 13h-4l-1 3 5 1 24-12 3 1-11 8-14 7-6 1-16-8-13-10-10-9-2-6 1-3h2l-1-7 4-5 14-9 21-13 19-9z" fill="#BDC3FD"/>
<path transform="translate(713,469)" d="m0 0h2v12h2v-10h3l2 5h2l6 16 1 6h2l-2 6-2 2 6 1 3 4 3 7 2 6h2v11l4-2 4-7v-8l3-1v-3l7 8 4 12 1 9-1 3-7 1 1 6-4 1v2l-5 1v2h-3v2l-5 3h-3v2h-3v2h-3v2l-5 1v2h-3v2h-3v2h-3v2h-2l-2-5-5-5v-2l-10 1-5 4h-5l-5-4-5-10-4-10-1-7 3-2h3v2h2l4 14 3 11 1 1 3-8 8-4 6-1-2-4-5-3-3-4-3-10-2-10h-3l-1-5h-2l-5-13-1-11h-2l-3 9h-2v2h-7l-6-2 1-3 7-5h2v-2l7-3 7 1 4 5 7 14 6 1-1-5-5-9-2-13v-4l13-9z" fill="#E6EDFC"/>
<path transform="translate(764,901)" d="m0 0 7 2 16 10 12 8 5 6 1 9h-2v3l2 1v5l-5 4-13 8-16 10-15 9-7 3h-7l-12-7-21-16-2-3v-3l3-1 4 4 2-3-5-2-5-6 1-5 5-6 14-10 15-9 17-9z" fill="#BDC3FD"/>
<path transform="translate(209,730)" d="m0 0h17l15 4 13 8-3 1 1 9-2 6v24l-5 19-5 13-1 2h-2l-1 5-4 6-4 2-2 4-4 5-9 7-9 6-8 4-6 5h-3l-1 3-11 7-1 2-6-1h-3l-9-7-7-7-2-3 1-3 4 2 11-8 14-8 5-2 13-11h2l2-4 10-14 6-10 5-14 2-10-2-32-2-5-4-1v-3h-5z" fill="#5C5BF3"/>
<path transform="translate(861,751)" d="m0 0h6l19 10 14 10 4 6 1 3v12l-2 5-5 3-2-1 1-4-7 1-15 10-14 8-10 5h-2l3 3 9-3 15-7 2 1-15 9-10 5-8 1-7-3-12-7-10-8-8-7-3-5v-8l2-5 7-6 20-13 18-11z" fill="#BDC3FD"/>
<path transform="translate(916,19)" d="m0 0h8l10 5 7 7 5 10 1 11 1 17 1 7 6 2 9 6 8 8 6 11 2 8v7l-4 8-8 6-16 9h-2l1-5-2-1-4-14-3-6-6-7-15-10-7-5-1-17-4-21-5-9-8-7-6-4 4-4 16-9z" fill="#D94D86"/>
<path transform="translate(701,1199)" d="m0 0 7 1 16 10 22 14 24 15 33 21 7 8 3 11v14l-4 7-21 12h-3v-4l-4-20-5-8-13-10-20-13-15-9-18-11-15-10-16-11-2-1 1-3 15-8z" fill="#D94D87"/>
<path transform="translate(530,203)" d="m0 0h1v58l-1 104-4 2-2 5 5 2 1 2-5-2-18-12-11-7v-138l4 5 3 7 1 6 6-1 1-1h8l1 3 3 1 2 6h3v3h2z" fill="#FDAE77"/>
<path transform="translate(499,1103)" d="m0 0 7 1 9 8 7 10 6 12 1 6-6 8-5 6-5 5-8 9-5 5-4 5-5 5-4 5-5 5-7 8-1 2h-2l-2 4-2 3h-2l-2 4-5 6h-2l-2 4-2 3h-2l-2 4-9 10-3 4h-2l-2 4-3 4h-2l-2 4-2 3h-2l-2 4-4 5h-2l-2 4-5 5-5 7-5 5-3 4h-2l-2 4-3 4h-2l-2 4-2 3h-2l-2 4-2 3h-2l-2 4-4 5-13 13-8 6-7 4h-5v-3l11-12 7-8 12-14 11-12 9-11 10-11 9-11 10-11 9-11 11-12 9-11 9-10 7-8 9-10 9-11 12-13 9-12v-7l-4-9-7-10-8-7-7-3 1-4 18-10z" fill="#3B34C9"/>
<path transform="translate(718,754)" d="m0 0 6 1 11 6 17 12 8 7 3 6-1 11-5 5-15 9-4 1-4-2h-7l-21 10-9-1-11-7-3 1 2 4 4 2 12 8 1 3-9-3-11-7-16-13-7-8-1-6 6-5 30-20 18-11z" fill="#BDC3FD"/>
<path transform="translate(924,800)" d="m0 0h7l16 10 14 10 6 5-1 17-4 1-6 2-19 9-15 7-9 5h-7l-4-1-1 5-3 1-9-5-14-11-8-8-2-5v-6l7-8 20-12 24-13z" fill="#BDC3FD"/>
<path transform="translate(639,804)" d="m0 0 5 1 17 10 16 12 5 6-1 5-10 7-18 11-11 7-16 8h-3v2l-4 2-2 5h-6l-16-10-11-9-3-4-1-7 1-10 7-6 22-13 17-11z" fill="#BDC3FD"/>
<path transform="translate(1367,971)" d="m0 0 7 1 9 6 11 6 18 11 2 4-3 13-10-2-20-9-3-1 2 5 15 10 10 9 4 6v3l2 1 4 10 2 14-2 8-8 7-10 5-7 1-10-3-9-7-8-9-5-11-2-6v-6l5-3h13l2 1 4 12 6 9 3 1v-12l-2-8-5-5-12-5-13-6v-10l2-32 4-5z" fill="#F5709B"/>
<path transform="translate(282,1043)" d="m0 0h9l1 1 1 33 5 19 5 12 7 11 7 7v2l4 2 11 8v6l-6 8-6 4-3 1h-10l-9-4-10-7-9-9-7-11-6-13-3-11-1-8v-22l3-13 6-9 6-5z" fill="#3A33C8"/>
<path transform="translate(472,1327)" d="m0 0h9l1 1 1 33 4 17 6 15 8 12 7 6v2l5 2 9 6-1 6-6 8-7 5-3 1h-7l-12-5-9-7-7-7-9-14-6-15-3-16v-24l4-13 6-8 6-4z" fill="#3A33C9"/>
<path transform="translate(781,801)" d="m0 0 5 1 21 12 10 7 5 6 1 3v8l-10 4-8 4-15 10-14 8-5 2-8-1-11-6-15-10-5-4h-8v-7l5-5 17-11 15-9 17-10z" fill="#BDC3FD"/>
<path transform="translate(700,204)" d="m0 0 7 2v2l4 1 11 8 36 24 13 9 14 10 5 6 1 11 1 9 1 5 1 3-5 3h-6l-14-9-15-10-17-11-16-10-16-11-5-5-3-5-1-10v-9l1-9z" fill="#F66F9B"/>
<path transform="translate(385,387)" d="m0 0h1l1 38v38l-18 11-24 16h-3v-70l1-13 26-14 7-3z" fill="#FD9E5E"/>
<path transform="translate(1276,1233)" d="m0 0h4v132l-4 3h-2v2l-7 4h-3v2l-7 4h-2l-1-7v-127l3-3 9-3 1-3 7-3z" fill="#B9BFFC"/>
<path transform="translate(1306,932)" d="m0 0 7 3 9 6v18l-1 39 8 2 1 2v9l-3 4-5 1-1 11-2 4-9-1-8-4-2-7-1-14-22-12-10-5-1-2v-10l6-8 9-10 9-11 9-10 5-4z" fill="#F6709B"/>
<path transform="translate(834,607)" d="m0 0 7 1 12 8 5 4 3 5-1 13-3 5-25 14-17 10-17 8-5-1-12-7-6-5-2-4 1-15 8-6 22-13 15-9z" fill="#BDC3FD"/>
<path transform="translate(620,734)" d="m0 0 6 1 11 6 13 10-1 6-4 5-10 6-9 3h-9l-2 2-6 1-2 4-4 1-6-4-3-1 3 4-1 5-4 2h-5l-2 4-5 2-6-2v-2h-4l1 4-1 2-5-1-3-3-3-1 3 7 5 1v2l-7 2-1-4-6-2-2-4h-4l1 7 3 2 6 1-1 4-1 1h-7v3h2l-1 5-10-3-9-8v-3h-2l1-5 3-1 2-6 9-6 16-10 14-9 13-8 22-13 11-6z" fill="#FDBF85"/>
<path transform="translate(1135,347)" d="m0 0h4l1 6-3 8 2 1-20 9-30 12-28 12-45 19-21 8-1 1-1 78-5-1-3-12-1-19 1-42v-20l8-4 17-7 14-5 12-5 21-8 37-15 15-6 16-6z" fill="#D94D86"/>
<path transform="translate(1252,603)" d="m0 0 7 1 21 13 15 10 11 7-5 4h-9v7l-2 3h-2l-2 4-4 4v3l1 2-2 10-5-2-17-11-12-8-11-6-17-10-6-3v-2l21-14 13-9z" fill="#FD9E5E"/>
<path transform="translate(809,781)" d="m0 0 2 1-4 4-1 4v8l4 6 7 6 12 9 12 7 9 1 11-5 6-2-3 3-2 1v5h6l4-1-6 8 1 9 7 8 11 9 10 7 6 1 1-5h11l15-8 16-7 16-8h5l2-16h1v15l-6 10-20 11-17 10-11 5h-8l-15-8-9-7-5-1v-2l-5-2-4-1-7 2-14-7-7 1-5 1 4-3 6-3v-5l-2-2 1-4 1-3-1-1h-7l-1 4-3 3-8-1-1 7-8 7-17 10-22 12-6 3h-8l-12-7-14-10-11-9-2-3 1-4h7l12 9 15 9 7 3 7-1 14-7 15-10 10-6 11-3-1-11 1 2h3l1 1 2-1-3-8-7-2-3-5-8-7v-2l-4-2-1-6v-9z" fill="#7B7FF4"/>
<path transform="translate(1135,1090)" d="m0 0 5 2 20 12 22 14 24 14 3 3-5 3-27 13-7-1-21-13-19-12-11-7-13-8 2-4 16-9z" fill="#BCC3FD"/>
<path transform="translate(575,239)" d="m0 0h1l1 30 1 62 1 18-12 9-22 13-11 6-3-1h2l-1-3-1-28v-43l2-3 4 4 3 11h2l1 2h7l6-2 5-5 3-5 6-2 3-7 1-13z" fill="#F66F9B"/>
<path transform="translate(720,454)" d="m0 0 6 1 10 14 10 18 6 11 1 3 5 1 2 1 6 16 5 10 4 11v5l-9 6-6 1-1-3 1-2 7-1-1-12-4-12-6-7 1 3h-3v8l-4 7-5 3-1-5 1-7h-2l-5-9-2-5-1-3h-7l5-9h-2l-3-10-4-10v-2h-2l-2-5h-3v10h-2v-12l-9 5-10 7 3 16 6 11-1 4-6-1-3-5-7-13-4-2-6 1-5 1v2l-8 5v-3l-3-1v-2l-5 1 1-5 13-12 14-8 8-4 9-3 7-2z" fill="#F4F6FC"/>
<path transform="translate(1087,1120)" d="m0 0 5 1 11 8 18 11 20 13 19 12 15 9-1 3-14 8-6 4-6-2-18-11-21-13-18-11-24-16v-4z" fill="#BCC2FD"/>
<path transform="translate(1044,1146)" d="m0 0 4 2 19 11 20 12 19 12 5 3v2l-26 9-10 4-7-1-17-10-17-11-23-14 2-3 16-8z" fill="#BCC2FD"/>
<path transform="translate(574,137)" d="m0 0 3 1-1 37-2 26-5 4-8 1-5-1-10 5h-3v-2h-2l-1 2-3-2-3-5-2-1v20h-1v-59l8-5 25-15z" fill="#FC8E5F"/>
<path transform="translate(294,1045)" d="m0 0 7 2v2h3v2l4 1 10 9 2 5h2v3h2l3 7v3h2l3 9 1 7 2 7v29l-1 6-6-1-11-8-7-8-7-10-5-11-5-17-1-5v-26z" fill="#F4F5FC"/>
<path transform="translate(483,1329)" d="m0 0 6 1 2 1v2l6 2v2l4 1 8 9v3h2v3h2l8 18 3 17v22h-2v9h-5l-9-6v-2l-4-2-7-8-7-12-6-18-2-10v-28z" fill="#F4F6FC"/>
<path transform="translate(1172,877)" d="m0 0h3l4 2 1 4-3 7-8 7-13 8-23 12-18 8-12 8-19 14-5 5-3 5-4 3h-5v2l-8 5h-3l-1 3-5 2-9 2-18 8-11 7-10 8-12 10-18 10-14 6-15 7-9 4v-3l-4 1 3-3 10-6 14-9 11-6 6-3 6-5 7-3 12-8 9-5 4-1v-2l13-7 10-7 10-6 11-7 9-6 5-2 7-5 8-4 10-7h3v-2l12-7h3v-2l5-3h3v-2l13-7 10-7 8-4 3-1 4-4 5-3 7-8z" fill="#EDF5FE"/>
<path transform="translate(949,784)" d="m0 0 5 3 10 8 14 10 13 10 9 7v2l4 2 10 8 2 1v2l4 2 9 6v2l5 2 13 8 5 3h8l16-8 16-9 19-12 6-2v-7h1v15l-6 7-23 13-20 12-12 6h-6l-13-7-13-10-12-10-13-10-12-10-10-8-11-9-10-9-5-5-3-7z" fill="#FC8D60"/>
<path transform="translate(1228,1307)" d="m0 0h5l1 31v56l-3 3h-3v2l-8 4-4 1v2l-7 2v-85l2-6 7-2v-2l8-4h2z" fill="#BBC1FC"/>
<path transform="translate(251,743)" d="m0 0h5l6 5-2 3v1 3h2l2 10-3 16-2 9-2 7-10 30-5 8-6 8-7 7-12 9-11 8-3 1-4 4h-3v2h-3l-1 3h-11l-3 1-7-3-4-4 2-1 4 1 5-4 8-5 1-2 5-3 7-5 12-6 9-8 10-10 4-5 3-7h2l3-9 5-16 2-9v-25l2-7z" fill="#4541D8"/>
<path transform="translate(1093,806)" d="m0 0 9 3 12 9 3 3v8l-11 6-21 13-18 10-7 3h-8l-13-8-10-6v-2l-5-2-8-6v-2l-5-2-5-6 4 2 14 10 10 6h6l8-5 13-8 11-5 12-5 3-3z" fill="#FCAD76"/>
<path transform="translate(584,40)" d="m0 0h13l7 3 6 5 4 5 1 10v8h-2l-3-16-3-4v-2l-8-4h-14l-6 2-8 4-4 1-3 3-8 4h-2v2l-6 3h-2v2l-7 3-1 2-4 1-4 4-7 3-1 2-5 2-5 4-5 2-8 5h-2v2l-7 3-3 3-10 5-8 5h-2v2l-5 3-4 1-4 4-7 3-5 3-1 2-7 3-14 9h-2v2h-3v2l-4 1-1 2-7 3-5 3-1 2-4 1-1 2h-3v2l-7 3-1 2-8 4-13 8h-2v2l-6 4-4 1-4 4-15 9-1 8h-4l1-6-7 3-4 4-6 3-10 10-4 5-1 3h-2v3h-2l-1 4-3 7h-2l-3 17-1 31-1 3-1 157h-1l-1-9v-186l4-13 1-3h2l1-6h2v-3h2l1-5h2l1-4 4-4 5-6 4-3h2v-2l5-3h2v-2l5-1v-2l5-3 1-5 5 1h3l9-6 5-2 3-3h3v-2h3v-2h3v-2l6-3h2v-2l14-8h2v-2l5-3h3v-2l5-3h3v-2l5-1v-2l7-4 6-4h3v-2l5-1v-2l5-1v-2h3v-2l5-1v-2l5-1v-2l5-1v-2l5-1v-2l5-1v-2l5-1v-2h3v-2l7-2v-2h3v-2l5-1v-2l5-1v-2l5-1v-2l10-5 10-6h2v-2l9-5 10-6h2v-2l5-1v-2h3v-2l5-3h3v-2l5-1v-2h3v-2h3v-2l4-2h3v-2l14-6z" fill="#868BF6"/>
<path transform="translate(1475,965)" d="m0 0h5l4 5v5l-1 2 1 4-4 3-1 10-6 9-1 3-8 8-2 1 1 4 5 1 4 3v5l-5 2-2 1-3-1-1-2-6 4-10-5-5-2-1-3 2-4h2v-7l5-7-1-2-8 1-1 4v2l2 1-3 2-2 7-1 1h-5l-1-3 5-8v-8l2-2 2-4 5-5 2-4 6-2 1-7 5-3 1-4 8-4 4 2 1 4h2l1-3h2z" fill="#EAF1FC"/>
<path transform="translate(1117,1042)" d="m0 0h10l12 5 2 1v2l5 1v2l5 2 3 1v2l5 2 21 13 6 3v2l5 1v2l5 1v2l-9 2h-5l-2 4-8 4-1 2h2v4h-2l-1 4-2 5-5-2-23-14-5-4h3l2-4h2v-2h2l1-2 4-2 3-9-6-8-2-4-6-2-4-1-7 1-2 1-14 1-2-4 3-4v-3l3-2-5 1 1-2z" fill="#7C80F4"/>
<path transform="translate(713,469)" d="m0 0h2v12h2v-10h3l2 5h2l6 16 1 6h2l-2 6-2 2 6 1-3 2v7l3 10 6 4v4l-10 7h-3v2h-3l-5-14-2-7-2-3-9-1-1 6-2 1-7-2v-2h2l-2-9v-3l5 2h2l-1-5-5-9-2-13v-4l13-9z" fill="#F1F3FC"/>
<path transform="translate(565,657)" d="m0 0 2 2-6 3-3 6-5 2v2h-2l-2 4-8 6-6 3-4 3-7 3-12 5v2l-8 4h-3v2l-9 6-11 7-6 1v-2l-4-1-1-5 4-6 4-2v-2l7-4 9-7 4-4h2v-2l11-8 7-5 9-5 7-4 11-3z" fill="#EAF1FC"/>
<path transform="translate(476,224)" d="m0 0 3 1 2 4 1 6 2 1 1-8 3-1 3 13 1 5 2-4v112l-1-3-4-2-4-1-1-2-1 60h-1l-1-139 4 1v-7l-4-5-6-4-6-7-3-8 1-5 5-2 1-2h2z" fill="#E7EDFC"/>
<path transform="translate(926,1033)" d="m0 0h4l1 3-4 4-22 16-21 12-21 11-10 7-19 14-13 6-27 2-12-4-8-7v-3l-9-1-8-6-9-6-11-8-12-10-3-4v-3h-2l-1-2-6-3-3-4v-2l4 1 14 11 16 12 19 14 13 9 10 5 8 2h15l10-2 12-6h3v-2l11-6 11-7 7-4 16-10 11-7h3v-2l12-7 6-4h3v-2z" fill="#EDF4FE"/>
<path transform="translate(532,1128)" d="m0 0h2l1 13-4 8-12 12-8 5-9 14-9 11-12 12-8 10-9 10-9 11-9 12-8 8-7 8-11 12-14 13-9 11-8 6-10 15-5 5-3 2h-5l-2 4-8 8-2-1 9-9 2-3h2l2-4 4-5h2l2-4 7-8 1-2h2l2-4 5-5 6-8h2l2-4 3-4h2l2-4 5-5 6-8h2l2-4 2-3h2l2-4 5-5 9-10 5-7h2l2-4 9-10 7-8 1-2h2l2-4 14-16 4-5 5-5 4-5 5-5 8-9 5-5 5-6 2-3v-5l3-1z" fill="#ECF4FE"/>
<path transform="translate(975,678)" d="m0 0 4 2 8 6 6 4 5 5-1 3h-5v2h-2l3 11-2 4 4 2-2 9 5 2 4 10-7 8-1 2h-2l-2 4h-3l-1 2h-2v2l-3 1h-2l-7 6-4-1v2l-9 2-9 3-6 3h-2v2l-11 4-4-1 13-5 16-10h-3l-19 10-6 1-3-3h2v-2l13-5 19-9 9-2 20-12 3-2v-11l-3-7-18-13-11-8-2-2 11-1 2-5 9-2 4 1-1-2-5-3z" fill="#7A7EF3"/>
<path transform="translate(274,266)" d="m0 0h1l1 60v116l1-148h1l1 212 1 18 4 11 4 5 7 3h12l16-8 16-9 12-8 11-6 15-9 22-13 13-8 3-2h4l-2 5-20 12-18 11-17 10-28 17-14 8-15 6h-9l-9-4v-2l-4-1-4-5-3-8-1-5-1-17z" fill="#A5ADFC"/>
<path transform="translate(881,879)" d="m0 0 5 2 1 1v11l-9 6-17 10-10 7-9 6h-2l-1 3-7 4h-7l-14-7-14-11-5-5-6-5-3-6 1-9h1v6l5 2 21 13 11 7 3 1h7l9-5 14-14 10-6 10-4 4-3z" fill="#9AA3FD"/>
<path transform="translate(1274,699)" d="m0 0 6 1 11 7 7 9 4 8v13l-5 4 2 5 4 6 1 3v9l-4 6-2 1h-9l-9-5-8-9-6-12-1-8 4-1 7 8 7 11 4 3 3 1v-9l-3-6-10-10v-4l11 1 2-1 1-6-3-8-5-3-4 1-1 1h-6l-7-7 1-5z" fill="#F6F8FD"/>
<path transform="translate(927,681)" d="m0 0h1l-1 10-6 7-17 10-19 12-13 7h-7l-16-8-14-10-10-10-2-4v-5l3-3v2h7l1 3 4 2 9 7 15 9 7 4 6-1 13-8 17-10 11-7 10-4z" fill="#9AA3FD"/>
<path transform="translate(1135,1271)" d="m0 0 1 3-4 10-1 11 2 25v7l-2 4 1 4-3 1-2 11-3-1v5l2-1 1 7h2l3 10 2 4-1 22-3 12-3 3-3 24 2 4v7l-2 8-1 11h-1l-1-182z" fill="#4440D7"/>
<path transform="translate(654,483)" d="m0 0h1v5l-11 7-3 5-6 5-3 6 6 2-5 10-3 1-1 5-1 2-18 2-4 2-5-1 2-5-6 1-16 6-15 7-4 3h-3v-3l-2-1 7-4 9-6 7-4 12-8 9-5 4-3h3v-2l12-7 11-6 8-5 5-3z" fill="#F2F4FC"/>
<path transform="translate(1252,603)" d="m0 0 7 1 3 3-1 1 2 1v3h2l4 4 5 3 2 3-2 1-8-2v5l-5 3-5 2-1 2h-2l-2 5-5 6v5l-5-2-15-9-13-7v-2l21-14 13-9z" fill="#FDAE77"/>
<path transform="translate(745,883)" d="m0 0h1v10l-3 6-10 7-29 17-14 7-9 1-12-7-12-9-10-8-2-3v-10l6 3 16 11 15 9 9-1 16-8 15-9 13-7 6-2 3-2z" fill="#9AA3FD"/>
<path transform="translate(681,494)" d="m0 0h2l3 14 3 6v4h2l1 5h3l2 5 1 5 3 10 4 5 4 2 1 4-9 4-5 2-3 9-2-3-3-11-3-9v-5h-2v-2h-3v-5l-9-2-7-15-3-10 2-1-1-4 14 3v-2h2z" fill="#F3F5FC"/>
<path transform="translate(847,935)" d="m0 0 11 7 17 13 11 7 3 2 5-1 23-12 14-8 11-6h6v7l-10 7-17 11-9 5-15 9-2 1h-6l-13-7-15-12-9-7-5-8z" fill="#9AA3FD"/>
<path transform="translate(804,930)" d="m0 0h1v6h-2v3l2 1v5l-5 4-13 8-16 10-15 9-7 3h-7l-12-7-21-16-2-3v-3l3-1 4 4 2-3-5-2-4-4 1-2 10 8 17 11 11 6 5-1 15-9 16-11 16-10 6-2z" fill="#9AA3FD"/>
<path transform="translate(288,805)" d="m0 0 5 1 1 9-2 15-5 14-2 8-7 9-9 9-9 6-17 7-7 3-18 4-15 3h-9l-10-3-15-7-6-4 1-2 16 8 15 5 11-1v-3-1l17-3 14-5 12-6 4-3h2v-2l4-1 1-3 7-6 3-5h2l2-4 5-9 5-14z" fill="#F2FAFE"/>
<path transform="translate(845,731)" d="m0 0 2 3-1 12-6 5-5 3-5 4h-3l-2 4-6 4-10 4-13 8-8 4-9-1-9-4-5-4-4-4-10-8-9-9-1-2v-8l2 4 5 1v2l4 2 5 5 7 3 10 6 9 4 7-1 11-5 13-7 4-4 13-8 6-3 7-2z" fill="#9AA3FD"/>
<path transform="translate(865,983)" d="m0 0h2v7l-4 5-6 4-17 11-15 9-13 7-6 1-9-4-15-10-13-11-2-3v-9l2 4 6 1 13 9 15 9 7 1 24-11 12-8 2-3h2v-2l10-6z" fill="#9AA3FD"/>
<path transform="translate(894,726)" d="m0 0 2 1-6 5-1 7v2h-2l1 7 7 8 16 12 16 8-3 1v5l1 1h8l4-3h5l3 1 5-2 7-6 6-2-3 3-8 6-2 4 1 10-5 4-14-1-9-1-10 1-4 1-6-1 1-5v-12l-4-8-5-5 1-3-1-3-3-2v-2l-4-2-3-3v-19l6-5z" fill="#7B7EF4"/>
<path transform="translate(614,55)" d="m0 0 2 4 1 14v224l-1 22h-1v-15h-2v14l-3 15-1-4 2-14 1-228v-24h1v8h2z" fill="#BEC4FD"/>
<path transform="translate(823,833)" d="m0 0h1v8l-3 7-8 6-18 10-16 9-8 4h-8l-12-7-14-10-11-9-2-3 1-4h7l12 9 15 9 7 3 7-1 14-7 15-10 10-6 11-3z" fill="#99A2FC"/>
<path transform="translate(1029,880)" d="m0 0h1v11l-10 7-19 12-15 9-9 5h-9l-15-9-22-15-3-4-1-6v-6l1 4 5 1 17 12 13 8 9 4 6-1 20-11 21-14 6-5h4z" fill="#99A2FC"/>
<path transform="translate(1184,1382)" d="m0 0h3l1 11v22l-1 7-11 8-5 1v2h-3v2l-5 1-1-1v-39l6-5 7-3z" fill="#B8BEFC"/>
<path transform="translate(913,630)" d="m0 0 5 1 6 5v2h2l-1-5 8 6 4 2 1 3h-3l5 5v3h-2l-1 2-5 1-2 8h-2l1 5-3 7-2-1v-2l-4-2-8-7-19-14-7-1-3-1 9-3h6v2h5l2-6 5 1v-2h2z" fill="#7B7FF4"/>
<path transform="translate(292,393)" d="m0 0h5l3 8v2h3l1 16v48l-5-2-3-3-1 4-5-8-2-14 4-1-3-11-1-6v-29z" fill="#EAF1FC"/>
<path transform="translate(681,837)" d="m0 0v3l-6 5 1 2 1-1h5l-1 5-4 5-6 4-5 4h-2v2l-5 4-1 2h-4l-9 3-20 10h-7l-12-6-11-8h3l13 8 6 1v-5l1-2h5v-2l12-5 14-8 31-20z" fill="#7B7FF4"/>
<path transform="translate(949,784)" d="m0 0 5 3 10 8 14 10 13 10 9 7v2l4 2 10 8 2 1v2l-4-2-3-1 4 6 10 9 2 4 1 4-5-2-8-7-13-10-12-10-10-8-11-9-10-9-5-5-3-7z" fill="#FC8D60"/>
<path transform="translate(861,625)" d="m0 0h1v14l8-1 3 2 1 7 7 1 2 1-40 25h-3l-1-5-9-4-2-2-4-2 24-14 10-6z" fill="#7B7FF4"/>
<path transform="translate(1222,667)" d="m0 0 5 1 16 10 10 6 6 5-1 7-16 30-4 10h-4l-2-3-5-2 1-5 8-18 9-17v-3l-16-8-8-6v-6z" fill="#F7F8FD"/>
<path transform="translate(1332,1007)" d="m0 0 3 3-2 10h4v2h-2v2h-2l-1 5-1 2v8l4 7 4 3v2l5 1-1 4-2 1h-9l-6-6-10-1-4-3-1-4 10 1-1-2-15-2-6-3-5-7 1-10 1-3h3l1 7 10 5 9 2 2-6 3-8 6-4z" fill="#F4FCFE"/>
<path transform="translate(357,331)" d="m0 0h6l5 1 15 1 4 5 4 8 5 1 1-9h1v45l-2-4h-2l-3-7-8-6-3-4 3-2-2-5-4-2-9-8v-2l-9-2-6-1 2-6z" fill="#EAF1FC"/>
<path transform="translate(860,625)" d="m0 0 1 4-2 12-9 6-18 10-17 10-17 8-5-1-12-7 1-4-6-8 4-1 5 4 9 4h9l21-11 20-12 11-8h2v-2l2-1z" fill="#9AA3FD"/>
<path transform="translate(1374 1e3)" d="m0 0h3l4 5 14 9 10 9 4 6v3l2 1 4 10 2 14-2 8-7 6h-3l1-4 1-2 1-1-3-5-1-8-2-6-4-9-3-4v-2h-2l-4-6-7-7-9-5-1-2 1-9z" fill="#DA4E86"/>
<path transform="translate(438,298)" d="m0 0 2 3 1 9h-2l2 11 1 10h2l1 3-1 5 2 2 4 16 1 6-1 1-1 7v11h-2v3h-2l1 4-3 3v-3h-2l1 9-2 4h3l2-2v4l4 1-1 10-5 4v2l-4-1-1-2v6h-1v-41z" fill="#4541D8"/>
<path transform="translate(441,241)" d="m0 0 4 2 17 11 11 7 8 5-4 2-10 7-5 2-8 1-10 2-2-3 1-4 4-8 4-2 1-4-2-6h-2l-2-4-6-2v2l-11 8-8 3h-4l-1 2-10 4-3 2 1-4 16-10z" fill="#5E5DF3"/>
<path transform="translate(812,965)" d="m0 0h7l10 5 6 7 1 2v9l-5 6-2 1h-12l-8-4-6-5-4-7v-6l7-6z" fill="#F4F6FC"/>
<path transform="translate(787,718)" d="m0 0h7l10 4 8 8 1 2v7l-4 7-2 1h-6l-2-4-3 1h-9l-8-5-4-6 1-8 5-5z" fill="#F5F7FC"/>
<path transform="translate(904,780)" d="m0 0h1v12l-2 5-5 3-2-1 1-4-7 1-15 10-14 8-10 5h-2l3 3 9-3 15-7 2 1-15 9-10 5-8 1-7-3-12-7-10-8-8-7-3-5v-8l2-4 1 4 8 7 7 6 13 9 7 4h8l17-8 15-11 7-4 10-6h4z" fill="#9AA3FD"/>
<path transform="translate(1306,932)" d="m0 0 7 3 9 6v18l-1 39 8 2 1 2v9l-3 4h-4v-2h2v-7l-5 1-1-1h-5l-2-3v-25l-1-7v-11l2-2 2-3 2-5-2-6-5-2-1-2-1 4-10-4 2-4z" fill="#DA4E86"/>
<path transform="translate(850,767)" d="m0 0h9l2 3-3 2-7 2-1 2 12-1 10 2 4 4 1 6-3 6-5 4-3 1h-8l-9-4-7-7-3-6 1-6 4-5z" fill="#F5F7FD"/>
<path transform="translate(704,773)" d="m0 0h9l9 5 11 9-1 7-8 7h-10l-12-7-7-7v-6l5-6z" fill="#F4F6FC"/>
<path transform="translate(927,677)" d="m0 0 2 3 1 5 7 4-1 8 1 2 11-3 7-1-3 2-13 5-19 10-19 12-5 2 4-4 8-5-1-2-11 3-8 3-6 3-3 2-6 2h-9l-16-8-11-8-1-2 4 2 13 8 12 6h7l15-8 22-14 13-8 4-5 1-10z" fill="#7B7FF4"/>
<path transform="translate(481,267)" d="m0 0h1v139l-8 6-2-1v-4l-8-1-1-3-2-1 1-5h2l-2-9 4-9 2-5h5v6l3-1 3-5 1-4z" fill="#4D4ADD"/>
<path transform="translate(274,266)" d="m0 0h1l1 60v116l1-148h1l1 230h-1l-1-10-1 10h-1l-1-17z" fill="#BEC4FD"/>
<path transform="translate(1332,795)" d="m0 0h6l1 7 3 1 1 3 5 3 2 5-2 3-7-1 3 7-1 4-3 1-12-6-18-12-1-3 2-4 7 1 11-4z" fill="#FDAE77"/>
<path transform="translate(1023,790)" d="m0 0 6 1 7 6 4-1 11-5 5 1-1 5-8 7-1 2 5 2 5 5v4l-7 1-12-6-5 1-4 3-9 1-2-2 1-5 4-4 3-1-1-5-2-4v-5z" fill="#F7F8FD"/>
<path transform="translate(1122,1345)" d="m0 0h1l1 6 2-1 1 7h2l3 10 2 4-1 22-3 12-3 3-3 24 2 4v7l-2 8-1 11h-1z" fill="#4541D8"/>
<path transform="translate(775,819)" d="m0 0h7l1 4-2 2-10 2v3h6l1-3 2 2h10l5 4 1 7-6 8-9 4h-6l-4-3v-3h8l5-2 2-5-4 1-18-1-9-4-1-5 4-4z" fill="#F4F7FD"/>
<path transform="translate(597,1420)" d="m0 0 4 3 1 16-2 10-4 7-4 6-23 13-9 6-16 8-9 3-20-1-5-3-1-3h21l16-6 9-5 8-5 11-6 8 1 10-9 4-8 3-11 1-9h-3z" fill="#F2F9FE"/>
<path transform="translate(555,543)" d="m0 0h2l1 4-5 5-11 10-11 9-9 6-9 4-14 6-3 1h-7v-2l-2-1 13-8 10-6h2v-2l6-3 6-4 9-5 13-8 6-4h3z" fill="#F0F2FC"/>
<path transform="translate(830,866)" d="m0 0h8l6 5 1 2v12l9-1 6-1 4 3-1 4-19 12-7 1-1-28-14 4-7 1-1-3 4-5z" fill="#F3F6FC"/>
<path transform="translate(784,886)" d="m0 0h1v6l5 2 21 13 11 7 12 4 2 3v3l4-1-3 3-5 3h-7l-14-7-14-11-5-5-6-5-3-6z" fill="#7B7FF4"/>
<path transform="translate(907,815)" d="m0 0 9 1 8 5 15 11v4l-8 7-7 3-7-1 1-4 10-4v-3l-8 1-8 2-3-2 1-5-1-2-10 1-2-2 1-7z" fill="#EBF1FC"/>
<path transform="translate(995,425)" d="m0 0 2 1v2l6 2 10 8-2 1-1 10-3 4-2 9-1 5-7 4-1 8v6l5 4-2 7 2 1-1 2-4-2-2 3v-65z" fill="#4541D8"/>
<path transform="translate(1317,726)" d="m0 0 6 1 6 5 4 8 2 8v8l-3 4h-7l-6-3-6-7-2-5v-13l4-5z" fill="#F7F8FD"/>
<path transform="translate(1233,1107)" d="m0 0 5 2 21 13 3 1v2l2 1 2 7-4 4h-7l-14-5-6-4-4-4-1-9-3-5 4-2 2 1z" fill="#7A7EF4"/>
<path transform="translate(877,670)" d="m0 0 9 1 3 2 4-1h8l4 3-1 4-9 2-3-1v2l-4 2 1 7-1 1h-6l-8-3-1 6-5 1-8-6-6-5v-3l2-1h11v-4l4-1 10 5 3 1-7-8-1-2z" fill="#EAF1FC"/>
<path transform="translate(762,783)" d="m0 0 2 2v8l-2 7-10 7-41 24-9 1-7-3 2-1 4 1-3-3-13-9-3-5 4-1 11 7 9 1 16-8 5-2h7l5 2 12-6 9-6 2-10z" fill="#7B7FF4"/>
<path transform="translate(1193,1372)" d="m0 0 7 3 1 3h-2v2l3 1v14l-2 8-5 1-3-3-2-6-1 25-1 3-2-1 1-7v-33l-11 6-3 1 1-5h-2l-1-2-3 1-3-1v-2l11-7h7l3 1z" fill="#4945DB"/>
<path transform="translate(180,406)" d="m0 0 1 2-6 11-8 12-6 10-9 12-8 11-10 15h-2l-2 5-6 8-7 10-3 6h-2l-2 5-9 14-5 8-2-1 6-11 11-19 11-17 16-24 13-18 12-17 9-12z" fill="#EAF1FC"/>
<path transform="translate(684,868)" d="m0 0 6 1 11 6 13 12-1 5-1 1h-7l-8-1v6l-7 2-3-3-3-10-1-7v-10z" fill="#F2F4FC"/>
<path transform="translate(732,508)" d="m0 0 4 1 2 2 3 7 2 6h2v17l-9 6-8 4-4-1-7-11-4-8-2-11 5-2 4 6 3 11 2 4v4h3v-2l7-4 4-3h2v-4l-5-2-3-5-2-7v-7z" fill="#605FF3"/>
<path transform="translate(611,116)" d="m0 0h1v199h-1l-1-83-2-43-3-16-1-10v-9l2-6 1-1 1-11 2-10h-2l1-6z" fill="#EAF1FC"/>
<path transform="translate(888,738)" d="m0 0h2l12 12 15 11 8 5 6 1-4 1-1 3 5 1 24-12 3 1-11 8-14 7-6 1-16-8-13-10-10-9-2-6 1-3h2z" fill="#98A1FC"/>
<path transform="translate(522,416)" d="m0 0 2 1-1 2 2 1-13 8-20 12-21 13-29 17-16 10-6 3-2-1 1-2-2-1 20-12 23-14 15-9 22-13z" fill="#BDC3FD"/>
<path transform="translate(1341,778)" d="m0 0h7l6 4 4 5 3 9v8l-3 5h-9l-6-5-4-8-1-3v-11z" fill="#F7F8FD"/>
<path transform="translate(658,520)" d="m0 0 5 1 1 6h2v2l5 2 9 2 1 4-2 4h-2l3 10 3 7 1 4-3 7-5-3-11-20-3-3-3-9-2-5z" fill="#F5F7FD"/>
<path transform="translate(1367,971)" d="m0 0 7 1 9 6 11 6 18 11 2 4-2 6h-2l-1-4-9-2-14-7-11-6-14-7z" fill="#DA4F86"/>
<path transform="translate(569,786)" d="m0 0 5 1v2l10 1-4 2v2l-9 4-7 4h-2v3l-3 3h-3l-1 5-9 3-10-4-7-2-7-5 1-7 3-6 3-3 5-2-2 6-3 3-1 3h2l3 5 8 6 8 2 1-4h-2l-1-3 2-1h6l2-4h-6l-5-5v-5l5-1 3 5 5 2 1 3 7-1v-2h-5l-3-5v-3l4 1 3 3 4 1z" fill="#FCAE77"/>
<path transform="translate(1417,1047)" d="m0 0 1 2 3 1v16l-4 6-13 8-12 5-8 1-9-3-9-6-7-10-1-7h2v-2h3l6 8 8 7 8 4 9 1 10-4 9-7 4-3 1-9z" fill="#F4FCFE"/>
<path transform="translate(951,348)" d="m0 0h1l5 23-1 28-1 6-2-1-2 4-6-4 1-5 3-3v-4l-5-3-1-15v-13l3-1v-3l4-4z" fill="#EAF1FC"/>
<path transform="translate(940,709)" d="m0 0h3l1 2 1 16h9l9 1 2 4-2 2-4 1-14 1-3 12-4 1-1-1-1-13-19-3-1-4 1-1 8-1 12 1 1-14z" fill="#F2F5FC"/>
<path transform="translate(793,1064)" d="m0 0h16l-3 2 2 16 2 3v3h2l2 8 5 1v1h-16l-8-4-2-5 1-4-3-7 1-10z" fill="#4541D8"/>
<path transform="translate(391,388)" d="m0 0h2v3l5 2 1 16 3 2v2h3v2l4 1 13 9 5 4-2 2-5-1-3-2v-2l-9-3-8-4-3 1-5 14-1 11h-1l-1-9-1-42 2-5z" fill="#F3FBFE"/>
<path transform="translate(437,296)" d="m0 0h1v128l1 9-5 1-9-6-10-7-3-2v-2l6 1 5 2 2-1h3l7 1-3-2v-3h-2l-2-9 1-7 3-5 3-2 1-17z" fill="#5C5BF3"/>
<path transform="translate(912,128)" d="m0 0 5 2 14 10 5 3 2 4-8 5-16 8-4-1 1-7v-22z" fill="#D94E86"/>
<path transform="translate(878,37)" d="m0 0h3v2h-2l2 21v10l-5-2-19-13-4-3v-2l16-9z" fill="#D94E86"/>
<path transform="translate(681,837)" d="m0 0v3l-6 5 1 2 1-1h5l-1 5-16 10-24 14-2-1 5-6 5-4v-2l-22 10-4-1 12-5 14-8 31-20z" fill="#99A2FC"/>
<path transform="translate(581,846)" d="m0 0 8 6 17 12 13 7 4 2-4 2-2 5h-6l-16-10-11-9-3-4-1-7z" fill="#9AA3FD"/>
<path transform="translate(987,813)" d="m0 0 4 2 9 7v2l4 2 10 8 2 1v2l-4-2-3-1 4 6 10 9 2 4 1 4-5-2-8-7-13-10-12-10-9-7v-2h6l9 4-2-4z" fill="#FC9B5E"/>
<path transform="translate(937,1395)" d="m0 0 5 1 19 12 10 6v2l5 1v2l6 2 2 1v2l5 1v2l4 1 7 4v2h3l1 3-10-1-12-6-10-6-11-7-13-10-4-4-4-2z" fill="#F0F7FE"/>
<path transform="translate(761,786)" d="m0 0h2l-1 11-5 5-15 9-4 1-4-2h-7l-19 9-2-1 15-9 15-8 13-9 5-3z" fill="#9AA3FD"/>
<path transform="translate(710,1045)" d="m0 0 4 1 14 11 16 12 19 14 10 7-2 1 1 3-7-1-8-6-9-6-11-8-12-10-3-4v-3h-2l-1-2-6-3-3-4z" fill="#F0F8FE"/>
<path transform="translate(680,490)" d="m0 0 7 1 4 5 5 10 3 11v4l-3 2h-4l-1-5h-2l-5-13-1-11h-2l-3 9h-2v2h-7l-6-2 1-3 7-5h2v-2z" fill="#8489F5"/>
<path transform="translate(277,248)" d="m0 0h1l1 5h1l-1 38-1 3-1 157h-1l-1-9v-186z" fill="#9EA6FD"/>
<path transform="translate(1335,1025)" d="m0 0h7l6 5 3 6v10l-5 4h-6l-6-4-4-7v-8z" fill="#F6739A"/>
<path transform="translate(893,794)" d="m0 0 5 1-1 4 6-2-5 5-14 9-13 8-4 1 4-4 5-3-22 10-5-2v-2l16-8 18-11 7-5z" fill="#7B7FF4"/>
<path transform="translate(680,539)" d="m0 0h3v2h2l4 14 3 11 1 1 3-8 8-4 8-2v2h2l-1 5-9 7-7 5h-5l-5-4-5-10-4-10-1-7z" fill="#868AF5"/>
<path transform="translate(1119,1118)" d="m0 0 10 5 7 5-4 2v2l1 8h-3l-1 5-5-2-19-12 1-2 4-2 2-4 7-2z" fill="#7A7EF3"/>
<path transform="translate(424,232)" d="m0 0 5 1-2 6-11 9-14 7-5-1-1-2 2-4-2-3 1-4 5-2v-2l4-2 15-1z" fill="#EAF1FC"/>
<path transform="translate(341,186)" d="m0 0 2 1-2 2v3l-12 7-1 8h-4l1-6-7 3-4 4-6 3-10 10-4 5-1 3h-2v3h-2l-1 4-3 7h-2l-2 10h-2l-1 2v-10l2-5h2l1-6h2v-3h2l1-5h2l1-4 4-4 5-6 4-3h2v-2l5-3h2v-2l5-1v-2l5-3 1-5 5 1h3z" fill="#888DF6"/>
<path transform="translate(818,1298)" d="m0 0 2 3-4 5-2-1v2l-13 10-11 5-10 3h-8l-10-4-4-5 2-4h5l5 3v2l6 2 5-1 13-5 13-8 7-4 4-1z" fill="#F5FCFE"/>
<path transform="translate(627,819)" d="m0 0 5 1 5 16 3 12-1 5-4-1-6-12-3-11-9 6-9 1 1-5 14-10z" fill="#F3FAFE"/>
<path transform="translate(584,40)" d="m0 0h13l7 3 6 5 4 5 1 10v8h-2l-3-16-3-4v-2l-8-4h-14l-6 2-8 4-4 1-3 3-8 4h-2v2l-6 3h-2v2l-7 3-1 2-4 1-4 4-2-1 5-7 5-1v-2h3v-2l5-3h3v-2l5-1v-2h3v-2h3v-2l4-2h3v-2l14-6z" fill="#888DF6"/>
<path transform="translate(740,270)" d="m0 0 6 2 22 14 10 7 6 4-1 2h-12l-8-4-10-9-10-6-4-4v-5z" fill="#F5FCFE"/>
<path transform="translate(812,965)" d="m0 0h7l10 5 6 7 1 2v9l-4 5h-5l1-9h-2l-6-8-5-2h-6l-3 1-4-3 4-5z" fill="#F3FAFE"/>
<path transform="translate(321,1085)" d="m0 0 4 4v2h6l1-3 1 7 2 7v29h-1v-9l-4 1-7-4-3-4-1-13 4-3 5 5 4-1v-3l-5-1-6-11z" fill="#E6EDFC"/>
<path transform="translate(704,194)" d="m0 0h2v2l-4 2-4 10-1 9-2 1v11l-1 2h-2l-1 9-6-3v-11l1-7-2-2 1-6 6-8 10-8z" fill="#EAF1FC"/>
<path transform="translate(582,803)" d="m0 0h3v2h-2l-1 3-21 13-8 7-4 1 3 4-4 2-7-1-7-5 3-2 2-2 1-3 11-4 7-2 6-2v-2l8-4 5-2z" fill="#FC8D60"/>
<path transform="translate(280,834)" d="m0 0 1 2h3v7l-7 14-9 10-6 5-9 4-3-1v-5l5-2v-2l4-1 1-3 7-6 3-5h2l2-4 5-9z" fill="#EFF1FC"/>
<path transform="translate(711,470)" d="m0 0h3v11l-6 3h-7l2 6h2l4 11v4h2l1 6h-6l-8-14-2-13v-4l13-9z" fill="#7E82F4"/>
<path transform="translate(294,1045)" d="m0 0 7 2v2h3v2l4 1 5 5h-2l-1 3 5 13-1 4-3-5-3-4-5 3-4-4-2 1-3-7h-2v-10z" fill="#E8EFFC"/>
<path transform="translate(1349,750)" d="m0 0 5 1-1 5-9 11-11 12-7 8h-5l-1-5 7-9 9-10z" fill="#F6F8FD"/>
<path transform="translate(1077,941)" d="m0 0 2 1v5l-5 5-9 8-10 6-12 5h-6v-2l10-8 2-3 7-4 9-6 5-2z" fill="#F1F3FC"/>
<path transform="translate(840,566)" d="m0 0 5 5v2l4 2 8 6 3 1 3 4-3 1-1 2-8-1-3-2-7-1h-9v-2h-2l-1-4 4-6 6-4z" fill="#7B7EF4"/>
<path transform="translate(867,842)" d="m0 0h6l11 8 16 10 6 3h6l7-3 3 1-9 5h-7l-4-1-1 5-3 1-9-5-9-7-1-5-3-2v-2l-3-1v-2l-5-2z" fill="#9AA3FD"/>
<path transform="translate(1378,968)" d="m0 0 6 1 11 4 6 5 8 6 3 4v2l3 1v1h-9l-14-8-10-6-8-5v-3z" fill="#F4FCFE"/>
<path transform="translate(433,1421)" d="m0 0 4 2 6 9v3h2l11 14 12 12h-7l-11-8-10-9-7-12-1-6z" fill="#F1F9FE"/>
<path transform="translate(1032,722)" d="m0 0 6 3v2l4 2 9 6 7 6 6 4 11 8 11 9 6 4 9 7 10 8 10 7 3 5-5-2-18-13-24-18-14-11-4-3v-2l-4-2-12-9-4-2-5-5z" fill="#7B7FF4"/>
<path transform="translate(1472,759)" d="m0 0h6v3l-2 5v4l-5 5 7 3 3 9-4-2-3-3h-6l-10-8 2-10 4-2 7-2z" fill="#EAF1FC"/>
<path transform="translate(362,1331)" d="m0 0h2l-2 4-9 12-12 9-6 3-10 2-7-1-3-4 10 1v-2l9-5 9-6 5-3 4-3 5-2z" fill="#F0F8FE"/>
<path transform="translate(662,795)" d="m0 0 5 1 6 4 16 12h-3l-3 1 2 4 4 2 12 8 1 3-9-3-11-7-13-10 1-2-7-8z" fill="#9AA3FD"/>
<path transform="translate(596,1418)" d="m0 0h1v9h3v9l-5 16-9 10-4 3h-5l-1-4 8-7 7-13 4-16z" fill="#F0F2FC"/>
<path transform="translate(483,1329)" d="m0 0 6 1 2 1v2l6 2v2l4 1-2 1 3 8-1 3-2 4-7-2-7-10-1-1-1 5h-1v-13z" fill="#E7EEFC"/>
<path transform="translate(694,1270)" d="m0 0 10 4 14 8 9 6 1 4-3 3-6-1-14-10-12-10-2-2z" fill="#F5FCFE"/>
<path transform="translate(574,768)" d="m0 0h6l7 4v3l-2 1 5 1v2l5 1-1 3-7 1-6-3-7-1v2l9 3 1 3-1 1-7-1-9-6-4-5 5-3 5 1 7 2-2-4-5-2z" fill="#F7F8FD"/>
<path transform="translate(576,355)" d="m0 0 2 1-2 4-4 1-7 8-15 11-11 4h-2l2-5 3-1v-2h2l2-4 16-10 10-6z" fill="#EAF1FC"/>
<path transform="translate(1121,1367)" d="m0 0h1l1 130 2 1v5l5-1-1 2-8 1-1-23v-114z" fill="#5C5BF3"/>
<path transform="translate(1185,561)" d="m0 0h8v1l-36 4h-16l-2 6h-12l-7-1v-1l-10-1 3-1-1-5h51z" fill="#D9DFFC"/>
<path transform="translate(747,919)" d="m0 0 5 1 7 8 8 7 7 6v4l-4 1-10-8-7-7-4-1-2 1h-6v-5z" fill="#F2F9FD"/>
<path transform="translate(728,438)" d="m0 0h2l6 15v2l-4-1-4-3h-6l-9 4-7 2-2-1v-2l-2-1 12-8h3v-2l7-4z" fill="#EEF0FC"/>
<path transform="translate(714,775)" d="m0 0 5 1 9 7 5 4-1 7-5 5-9 1 3-4-2-1 6-5-1-3-7-1-1 3-8-1 1-8 4-1z" fill="#F4FBFE"/>
<path transform="translate(834,81)" d="m0 0 6 3 4 5 6 2 5 3 4-2 1 6 6 1 1 4-1 6-7-3-10-5-6-5-8-10-3-2v-2z" fill="#EAF1FC"/>
<path transform="translate(398,268)" d="m0 0 2 4 7 1 12 8 1 2-7-2-9 3-4-1-1 122h-1z" fill="#BDC3FD"/>
<path transform="translate(1378 1e3)" d="m0 0 6 1 17 8 7 2 4 5-2 4-5 2h-3l-8-7-14-9-2-2z" fill="#EBF1FC"/>
<path transform="translate(1317,318)" d="m0 0 5 2 4 9 2 9v8l-3 8h-3l-6-22z" fill="#7B7FF4"/>
<path transform="translate(1361,1034)" d="m0 0h13l2 1 4 12 7 11-3 3-5-1-5-5-5-13-2-1v-2l-10-1v-2z" fill="#DC5186"/>
<path transform="translate(556,784)" d="m0 0h6l6 4 2 2v3l-5-1-3-3-3-1 3 7 5 1v2l-7 2-1-4-6-2-2-4h-4l1 7 3 2 6 1v3h-9l-6-4-1-2v-6l5-5 6-1 3 3z" fill="#F7F8FD"/>
<path transform="translate(849,775)" d="m0 0h13l10 2 4 4-1 4h-5l-1 6h-9l-10-8v-2l8-1 1-3-10 1z" fill="#F2F5FC"/>
<path transform="translate(522,1380)" d="m0 0h1l1 8v22h-2v-2l-7-2v-2l-3-1-3-6 1-9 4-1 8 1z" fill="#E4EBFC"/>
<path transform="translate(1477,925)" d="m0 0 4 4v7l-3 4 1 19-3 5-8 1-1-11 5-9 3-11 2-4-1-4z" fill="#EAF1FC"/>
<path transform="translate(1317,726)" d="m0 0 6 1 4 6h-2v2h-5v10l3 8-3 3-4-2-4-6-1-3v-13l4-5z" fill="#F7F8FD"/>
<path transform="translate(341,461)" d="m0 0h1l1 30-6-1-16-10-1-4 2-2h8 3l6 3z" fill="#FDAF78"/>
<path transform="translate(569,786)" d="m0 0 5 1v2l10 1-4 2v2l-9 4-5 3-6 2-4 1 1-4h-6l-5-5v-5l5-1 3 5 5 2 1 3 7-1v-2h-5l-3-5v-3l4 1 3 3 4 1z" fill="#FDBF83"/>
<path transform="translate(986,863)" d="m0 0h6l1 4-8 6-17 10-6 1-2-5 15-10z" fill="#F4F6FC"/>
<path transform="translate(858,883)" d="m0 0 5 2 1 4-15 10-5 3-2-1-3-10 4-3 2-3 9-1z" fill="#EAF1FC"/>
<path transform="translate(996,873)" d="m0 0 5 1-1 4-16 9-11 5h-5l-1-5 18-10z" fill="#F4F7FC"/>
<path transform="translate(1364,683)" d="m0 0 4 1 10 4v2l8 2 2 2v3l4 1 2 3v3l-10-2h-4v2l-3-1-2-6-7-6-4-6z" fill="#F98066"/>
<path transform="translate(999,525)" d="m0 0 4 2 10 6 9 8 16 7 15 7 27 9 20 4 2 2h-12l-15-4-27-10-16-7-12-6-8-6v-2l-4-2-8-5z" fill="#F5FDFF"/>
<path transform="translate(247,329)" d="m0 0h1l-1 7-4 5-5 5-15 16-3 1v2l-2-1-1-3 10-11 9-11 4-2 2-4z" fill="#EAF1FC"/>
<path transform="translate(714,518)" d="m0 0 3 1 3 5 3 11 2 4v4h3v-2l2 1-3 5h-2l2 4-4-2-9-15-3-11 1-4z" fill="#6C6DF4"/>
<path transform="translate(787,898)" d="m0 0 6 3 7 5 11 6 5 3v2l4 2 2 4 6 2v3l-6-2-14-8-13-10-7-6z" fill="#9AA3FD"/>
<path transform="translate(1379,1034)" d="m0 0h4l1 2 4 1 2 8v10l-1 2-4-1-6-9-3-8 1-4z" fill="#F3F6FC"/>
<path transform="translate(907,815)" d="m0 0 9 1 7 6-2 2h-6l-4-1-8 6-5-1-1-1 1-7z" fill="#F4F6FC"/>
<path transform="translate(412,417)" d="m0 0 6 1 5 2 2-1h3l7 1 2 1 2 12-5 1-9-6-10-7-3-2z" fill="#6160F3"/>
<path transform="translate(1117,822)" d="m0 0h1v15h-1v-6l-4 2-5 5-14 9-11 6-6 3-7 4h-6l3-3 20-11 24-15 6-2z" fill="#F98066"/>
<path transform="translate(718,472)" d="m0 0 4 2v2h2l6 16 2 7-2 2h-5l-5-11-2-10z" fill="#8084F4"/>
<path transform="translate(663,508)" d="m0 0 6 1 2 2 2 8h2l4 11v3h-6l-3-3-6-13z" fill="#8387F5"/>
<path transform="translate(699,526)" d="m0 0 6 1 4 13 2 6v5l-7-3-4-5-3-10-1-5h3z" fill="#696AF3"/>
<path transform="translate(845,731)" d="m0 0 2 3-1 12-6 5-5 3-5 4h-3l-2 4-6 4-10 4-13 8-8 4-9-1-9-4-5-5 5 2 10 5h9l15-8 26-17 13-8 1-2z" fill="#7B7FF4"/>
<path transform="translate(710,553)" d="m0 0h2v2h2l-1 5-9 7-6 4h-4v-8l2-4 8-4z" fill="#777AF4"/>
<path transform="translate(878,144)" d="m0 0 4 2 7 8 10 7-1 3-6 1-10-5-4-4-1-3v-7z" fill="#F5FCFE"/>
<path transform="translate(809,973)" d="m0 0 9 1 6 5 3 5-1 5-9-2-8-7-2-2 1-4z" fill="#BEC4FD"/>
<path transform="translate(929,898)" d="m0 0 11 7 16 11 12 7h9l4-1-3 3-8 1-16-8-6-2-7-4-3-1v3l-5-2-1-5-3-6z" fill="#7A7EF3"/>
<path transform="translate(1341,778)" d="m0 0h7l6 4 4 5 1 2v10l-3 1v-5h-2l-3-8-5-1-3 3h-3l-2-2 1-7z" fill="#F6F8FD"/>
<path transform="translate(1152,896)" d="m0 0 7 1-1 4-4 1v2l-19 9-4-1-1-3 5-3 14-9z" fill="#EBEDFC"/>
<path transform="translate(1238,549)" d="m0 0 4 1v2l9 1v2l-18 4h-16l-3-3 21-6z" fill="#EEF6FE"/>
<path transform="translate(617,770)" d="m0 0 2 1v2l-8 2 1 3-4 4-5 3-2 3-7 2-1-1h-6-3l3-4 9-3-1-5-1-3 5 1 5 3 4-2 3-3 5-2z" fill="#FDAE77"/>
<path transform="translate(415,480)" d="m0 0h4l-2 5-20 12-12 7-2-2-4 1 3-3 22-13z" fill="#A4ACFD"/>
<path transform="translate(689,547)" d="m0 0 14 3v7l-7 3-3 9-2-3-3-11v-6z" fill="#F3F5FD"/>
<path transform="translate(642,410)" d="m0 0h3l-2 4-11 8-5 4-9 2-2-3 7-7 16-7z" fill="#EAF1FC"/>
<path transform="translate(945,148)" d="m0 0h8l-5 6-10 4h-2l-1 3-11 6-9 1 4-4 5-4 9-4 3-3 7-3z" fill="#EAF1FC"/>
<path transform="translate(497,358)" d="m0 0 4 1 4 4 1 4 4 2 8 8 11 3-1 3h-6l-8-6-11-7-9-6-1-4z" fill="#EAF1FC"/>
<path transform="translate(732,508)" d="m0 0 4 1 2 2 3 7 3 6v5l-5 1-5-4-3-10v-7z" fill="#5F5EF3"/>
<path transform="translate(1039,1459)" d="m0 0 5 1 5 3v6l11 9 24 16-1 2-10-4-8-7-11-8-9-7-5-7z" fill="#F3FBFE"/>
<path transform="translate(597,756)" d="m0 0h10l6 4 8 6v3l-5-1-11-8h-4v4h6l3 4v3l-5-2-2-2-7-3-1-3z" fill="#F7F8FD"/>
<path transform="translate(385,1302)" d="m0 0h3l-1 5-8 12-5 5-3 2h-5l-2 4-8 8-2-1 9-9 2-3h2l2-4 4-5h2l2-4 7-8z" fill="#E6EDFD"/>
<path transform="translate(991,996)" d="m0 0 1 3-6 7-12 7-7 1 1-6 6-3 6-5z" fill="#EFF1FC"/>
<path transform="translate(782,830)" d="m0 0h9l5 5-1 7-5 6h-6l2-5 2-3v-3l-7-2v-4z" fill="#F4FBFE"/>
<path transform="translate(431,540)" d="m0 0h5l-2 4-16 8-8 6-8 5-7 2 2-4 10-7 14-8z" fill="#EAF1FC"/>
<path transform="translate(614,55)" d="m0 0 2 4v40l-1 31h-1l-1-32-1-11v-24h1v8h2z" fill="#A1A9FD"/>
<path transform="translate(241,1136)" d="m0 0 3 2v2h2l6 9v3l3 1 1 4 4 2-1 3-7-2-5-6-4-6-2-4z" fill="#F0F7FE"/>
<path transform="translate(662,616)" d="m0 0 1 2-4 4-5 2v2l-13 8-10 4v-3l4-4 18-11h2v-2z" fill="#6161F3"/>
<path transform="translate(1380,974)" d="m0 0h8l7 3 9 8 2 6-5-2-14-8-9-5z" fill="#F3F5FC"/>
<path transform="translate(649,606)" d="m0 0h2l-1 4-7 6-10 4-2 3-6 3h-4l1-4 14-10z" fill="#EAF1FC"/>
<path transform="translate(1172,832)" d="m0 0h1v24h-1l-1-11-5 6-3 2h-3l1-5 2-5 1-7 5-1h3z" fill="#7477F3"/>
<path transform="translate(530,302)" d="m0 0h1l2 74-3 1-4-4-2-1 1-5 4-2z" fill="#F98067"/>
<path transform="translate(904,780)" d="m0 0h1v12l-2 5-5 3-2-1 1-4-7 1-15 10-5 2 5-5 12-9 12-6 5-1z" fill="#9AA3FD"/>
<path transform="translate(680,490)" d="m0 0h2l-1 6-3 7h-2v2h-7l-6-2 1-3 7-5h2v-2z" fill="#797CF4"/>
<path transform="translate(800,1256)" d="m0 0h6l6 5 8 16 2 3 1 5v7l-4 6-1-14-3-10-4-5-2-6-5-3v-2h-4z" fill="#F5FCFE"/>
<path transform="translate(991,262)" d="m0 0 2 4 3 1 1 6v8l-4 3-10 1-3-2 5-4 4-2 1-7h2z" fill="#EAF1FC"/>
<path transform="translate(384,382)" d="m0 0 3 1 1 36v43h-1l-2-74-9 3-6 1 3-3z" fill="#FDB37A"/>
<path transform="translate(854,682)" d="m0 0h9l5 2 1 4 4 2v5l-5 1-8-6-6-5z" fill="#F4F6FC"/>
<path transform="translate(496,292)" d="m0 0 2 2v7l3 16-1 13-3 8h-1z" fill="#FD9E5E"/>
<path transform="translate(805,794)" d="m0 0h2v2h2l7 8 16 13v2l-6-1-10-8-8-7-3-5z" fill="#BAC0FD"/>
<path transform="translate(1259,260)" d="m0 0 6 1 11 6v2l4 2 5 3 2 3-1 3-7-4-8-5-4-1-5-6-3-3z" fill="#7B7FF4"/>
<path transform="translate(1327,734)" d="m0 0 4 1 4 13v8l-1 2h-4l-3-4v-13l-1-5z" fill="#F5FBFE"/>
<path transform="translate(564,674)" d="m0 0h3l-2 5-7 6-15 8-3-1 5-7 11-6z" fill="#6262F3"/>
<path transform="translate(888,746)" d="m0 0 5 3 9 8 14 10 2 4-5-1-14-10-11-10z" fill="#B9C0FD"/>
<path transform="translate(400,272)" d="m0 0 7 1 12 8 1 2-7-2-9 3-5-2v-9z" fill="#9AA3FD"/>
<path transform="translate(623,821)" d="m0 0 2 1 1 7-9 6-9 1 1-5z" fill="#F3F5FC"/>
<path transform="translate(344,423)" d="m0 0 3 1 4 11-2 13-3 2-2-2-1-22z" fill="#FD8E60"/>
<path transform="translate(212,1089)" d="m0 0 2 4 6 9 2 1 5 12 2 15-1 2h-2l-3-14-5-13-6-10z" fill="#EAF1FC"/>
<path transform="translate(1342,1026)" d="m0 0 4 2 5 8v10l-3 3h-3v-5l-2-1v-5l1-3-3-7z" fill="#DC5286"/>
<path transform="translate(799,852)" d="m0 0h5l-1 4-9 6-6 1v2l-5 2-5 1 4-5 9-7z" fill="#7B7FF4"/>
<path transform="translate(628,834)" d="m0 0 6 2h3l3 12-1 5-4-1-6-12z" fill="#F3F6FD"/>
<path transform="translate(538,569)" d="m0 0 4 1v2l-4 4-1 2-6 3-7 4-7 1-1-3 20-11z" fill="#F7F8FD"/>
<path transform="translate(310,479)" d="m0 0 10 1 8 5 7 3 2 4-8 1-6-3-2-3 1-1-3-2h-5l-4-3z" fill="#EAF1FC"/>
<path transform="translate(832,975)" d="m0 0 4 4v9l-4 5h-5l1-9h-2v-4l6-1z" fill="#F3FAFE"/>
<path transform="translate(1346,785)" d="m0 0 5 1 3 5 1 8-2 3-5-1-3-11z" fill="#FDB97F"/>
<path transform="translate(276,511)" d="m0 0 2 3v10h2l4 11 4 5 1 4-6-2-4-5-3-8z" fill="#A4ACFC"/>
<path transform="translate(806,726)" d="m0 0 4 2 3 4v7l-2 4-7-2 1-7-4-5z" fill="#F3FBFE"/>
<path transform="translate(869,676)" d="m0 0 6 2 4 4-6-1 1 5 8 4-2 1-6-2-1 4v-3l-5-1-1-5-11-2v-1h11v-4z" fill="#EAF1FC"/>
<path transform="translate(822,967)" d="m0 0 5 2 6 5-1 5-6 1-1 2-5-7 2-1-1-1v-5z" fill="#F4F7FC"/>
<path transform="translate(785,836)" d="m0 0 4 1-1 4-4 7 4 1-7 3h-6l-4-3v-3h8l5-2 2-5-4 1h-7v-1l8-2z" fill="#EAF1FC"/>
<path transform="translate(991,218)" d="m0 0h1l1 31 1 13-3-2-3-19 1-9 1-2v-8z" fill="#EAF1FC"/>
<path transform="translate(1052,764)" d="m0 0 4 1 11 8 13 10 3 2v2l-5-2-6-3-4-3v-2l-6-2-5-5z" fill="#7B7FF4"/>
<path transform="translate(815,755)" d="m0 0h6l-2 1-2 4-16 9h-4l1-4z" fill="#7B7FF4"/>
<path transform="translate(1320,734)" d="m0 0 4 1 3 7v8l-5 1-3-6v-10z" fill="#FEC084"/>
<path transform="translate(1298,969)" d="m0 0h2l-1 17-5-2-5-4 1-3h2l2-4z" fill="#F3F6FC"/>
<path transform="translate(1175,878)" d="m0 0 2 1-1 6-7 8-5 1v-3l-2-1 9-9z" fill="#F3F4FC"/>
<path transform="translate(834,1089)" d="m0 0 4 1 1 2-5 5-7 4-4-1-3-4 11-5h3z" fill="#E7E9FC"/>
<path transform="translate(142,846)" d="m0 0 4 5 7 9 3 4-6-1 4 7-1 2-7-9-5-12z" fill="#EEF5FE"/>
<path transform="translate(588,761)" d="m0 0h2l3 6 6 3 7 5v2l-5-1-8-5v-2l-9-1-3-2v-2z" fill="#F7F8FD"/>
<path transform="translate(787,727)" d="m0 0h10l4 2v5h-10v2h-2v-3l-4-1 1-4z" fill="#EAF1FC"/>
<path transform="translate(766,832)" d="m0 0h10l2 5-2 2h-12l-4-2v-2z" fill="#F4F7FD"/>
<path transform="translate(873,680)" d="m0 0 15 6 1 5-1 1h-6l-3-3-7-3v-5z" fill="#F5F7FC"/>
<path transform="translate(966,829)" d="m0 0 1 4-1 9-4 1-6 2-4 1 5-5 3-9z" fill="#9AA3FD"/>
<path transform="translate(747,919)" d="m0 0 5 1 1 2-2 6 1 2-11 1v-5z" fill="#F4F7FC"/>
<path transform="translate(843,879)" d="m0 0h1v9l-4 4 3 9-1 2h-5v-23h1l1 7 2-4h2z" fill="#F1F4FC"/>
<path transform="translate(914,826)" d="m0 0 4 1 1 2 4 1v2l-3 3-8 2-3-2 1-4 2-4z" fill="#F5F7FC"/>
<path transform="translate(955,760)" d="m0 0 3 1-11 8-14 7-6 1v-2l5-2h4l2-4z" fill="#9AA3FD"/>
<path transform="translate(918,728)" d="m0 0h19l-1 5h-15l-4-1z" fill="#F4FBFE"/>
<path transform="translate(1453,717)" d="m0 0 7 1 2 4v5l-5-1-1 2 2 1-5 2-1-8-1-4h2z" fill="#EAF1FC"/>
<path transform="translate(1157,565)" d="m0 0h14l-4 2-19 3-6 1-3-2 2-3z" fill="#F5FCFE"/>
<path transform="translate(703,879)" d="m0 0 5 2 6 6-1 5-1 1h-7l-5-1v-1l7-2-2-4-2-2z" fill="#F2F8FD"/>
<path transform="translate(790,1099)" d="m0 0 19 1-1 3-7 2h-9l-3-3z" fill="#F5F7FC"/>
<path transform="translate(689,547)" d="m0 0 14 3v7l-4 2h-3v-6l-6-2z" fill="#F2FAFE"/>
<path transform="translate(720,513)" d="m0 0 4 1 2 9 3 3 1 5-2 3-3-1v-2h-2l-1 4-1-6 2-2h1l-3-9v-3l-2-1z" fill="#E7EEFC"/>
<path transform="translate(670,866)" d="m0 0 5 1-5 4-16 10-2-1 11-12 5-1z" fill="#7B7FF4"/>
<path transform="translate(341,186)" d="m0 0 2 1-2 2v3l-10 6h-2v-2l-4 2-3-1 2-6 5 1h3z" fill="#9AA0F9"/>
<path transform="translate(877,670)" d="m0 0 9 1 3 2 2 7-3 1-2-1v-2l-6-2-4-4z" fill="#F4F6FC"/>
<path transform="translate(709,181)" d="m0 0 3 1-2 5-4 4-7 1-1-5 3-3z" fill="#EAF1FC"/>
<path transform="translate(874,784)" d="m0 0 3 1-2 7-6 5h-5l2-6h3l1-6z" fill="#F3FAFE"/>
<path transform="translate(1356,778)" d="m0 0 5 1 5 4v6h-5l-7-6 1-4z" fill="#FDAE77"/>
<path transform="translate(321,1085)" d="m0 0 4 4v2h6l1-3 1 7 1 1v5l-7-2-6-11z" fill="#E4EBFC"/>
<path transform="translate(1482,953)" d="m0 0 6 1 1 1v5l-4 3h-4l-1 2-3-1 1-2h1l2-8z" fill="#EAF1FC"/>
<path transform="translate(732,508)" d="m0 0 4 1 2 2 2 7-5-1 2 9v3l-3-3-3-10v-7z" fill="#7C7FF5"/>
<path transform="translate(539,406)" d="m0 0 2 1-2 2 2 2-10 6-8 3-3-1 7-6z" fill="#BDC3FD"/>
<path transform="translate(705,497)" d="m0 0 2 1v3h2v4h2l1 6h-6l-4-7 1-5z" fill="#6667F3"/>
<path transform="translate(710,553)" d="m0 0h2v2h2l-1 5-5 4-3-1 1-3-5-1v-2z" fill="#6666F3"/>
<path transform="translate(850,949)" d="m0 0 8 6 18 14-2 1-9-6-8-4-7-9z" fill="#7B7FF4"/>
<path transform="translate(795,835)" d="m0 0h1l-1 7-5 6h-6l2-5 4-7z" fill="#F4F7FD"/>
<path transform="translate(855,783)" d="m0 0 11 1 2 2-1 4-1 1h-6l-6-5z" fill="#BEC4FD"/>
<path transform="translate(579,378)" d="m0 0 3 1-10 8-14 9-4 1 2-4 18-11z" fill="#EAF1FC"/>
<path transform="translate(943,725)" d="m0 0 4 3 16 2-3 3-3 1h-13v-5z" fill="#F5FBFE"/>
<path transform="translate(713,463)" d="m0 0h6l3 3-2 5h-3v10h-2l-1-12z" fill="#F5FBFE"/>
<path transform="translate(816,1015)" d="m0 0 2 3v2l-6 3-8-1v-5z" fill="#7B7FF4"/>
<path transform="translate(994,503)" d="m0 0 3 3 3 1v2l4 2-1 4h-6l-5-5 1-4z" fill="#4845D9"/>
<path transform="translate(1028,886)" d="m0 0 2 1-1 5-17 11-5 3-2-1 11-9 6-3 3-1 2-4z" fill="#B8BFFD"/>
<path transform="translate(991,727)" d="m0 0h1v11l-9 6-7 4-2-1 7-6 4-5 5-3z" fill="#9AA3FD"/>
<path transform="translate(850,767)" d="m0 0h9l2 3-3 2-8 2v-2l-8 1 5-5z" fill="#F2F5FC"/>
<path transform="translate(369,481)" d="m0 0 3 1-4 4h-4l-1 3-13 2 1-3 5-3 12-3z" fill="#EAF1FC"/>
<path transform="translate(273,308)" d="m0 0h1v10l-1-2-5 1-3 7-3 3 1-6 3-7-2-1 4-2z" fill="#EAF1FC"/>
<path transform="translate(696,509)" d="m0 0 6 2 4-1 5 1-3 3-1 3-3-2v2h-2l-1 4h-2l-2-9z" fill="#E0E7FC"/>
<path transform="translate(746,748)" d="m0 0 5 2 11 10-1 3-9-6-5-4z" fill="#7B7FF4"/>
<path transform="translate(629,737)" d="m0 0 8 4 8 6-4 2h-3l-2-3-3-1v-2l-5-2-1-3z" fill="#FCA976"/>
<path transform="translate(530,346)" d="m0 0h1v29l-5-2-2-1 1-5 4-2z" fill="#FD975E"/>
<path transform="translate(723,173)" d="m0 0 5 1v6l-1 1h-5v-2l-3 1-3-1 1-4z" fill="#EAF1FC"/>
<path transform="translate(945,727)" d="m0 0h9l9 1 2 4-2 2-4 1-15 1v-2l13-1 5-2-15-2z" fill="#EEF3FC"/>
<path transform="translate(818,279)" d="m0 0h2l-2 4-5 4-11 7-4 2-4-1 13-8 9-7z" fill="#F4FBFE"/>
<path transform="translate(778,827)" d="m0 0 2 2h10v1l-8 1v4l3 2-4 2h-5l1-4-1-2-6-1 1-2h6z" fill="#F1F4FC"/>
<path transform="translate(996,485)" d="m0 0 5 4-2 7 2 1-1 2-4-2-2 3v-14z" fill="#4440D7"/>
<path transform="translate(682,833)" d="m0 0 2 3v11l-2 4-1-2 1-3-7 2v-4l6-5z" fill="#7B7FF4"/>
<path transform="translate(894,673)" d="m0 0h9l2 2-1 4-8 1-3-3z" fill="#F3F6FC"/>
<path transform="translate(1311,814)" d="m0 0 7 4 10 7-1 2-6-2-6-4-4-2-1-4z" fill="#EAF1FC"/>
<path transform="translate(330,1347)" d="m0 0 7 1-5 4-4 3h-3v2h-6v-2l10-7z" fill="#6161EF"/>
<path transform="translate(343,1344)" d="m0 0h2l1 5-4 4-6 1-1-5z" fill="#F1F3FD"/>
<path transform="translate(751,1224)" d="m0 0 5 2 8 5 7 3v2l4 2-4 1-8-5-5-2v-2l-4-2-3-2z" fill="#F5FCFE"/>
<path transform="translate(705,938)" d="m0 0 2 4 5 6 4 2-2 4-5-4h-2l1 5-3-3z" fill="#7B7FF4"/>
<path transform="translate(576,389)" d="m0 0 2 1-1 1 2 2-11 7h-4l1-4z" fill="#F0F4FC"/>
<path transform="translate(444,1435)" d="m0 0 5 5 1 2h-2l-2 4-6-5-1-4z" fill="#F2F4FD"/>
<path transform="translate(301,1344)" d="m0 0 5 2 8 7v3l-7-2-6-6z" fill="#EDF5FE"/>
<path transform="translate(1265,989)" d="m0 0 5 1 2 1 3 6v2l-6-1-4-4-1-3z" fill="#F5FDFF"/>
<path transform="translate(381,1181)" d="m0 0h2l-1 4-9 6h-7l5-4 6-4z" fill="#E9F0FE"/>
<path transform="translate(899,928)" d="m0 0h5l2 4-2 3-6 1-2-1 1-5z" fill="#F3F5FC"/>
<path transform="translate(866,842)" d="m0 0 10 8v2l4 2 1 4-5-2-9-9z" fill="#B9BFFD"/>
<path transform="translate(681,494)" d="m0 0h2l3 14 1 4-5-5-1-4h-3zm-5 9 2 1-2 1zm-4 2 4 1z" fill="#E6EDFC"/>
<path transform="translate(894,726)" d="m0 0 2 1-6 5-1 7v2h-2v6l-2-1v-13l6-5z" fill="#7B7FF4"/>
<path transform="translate(392,494)" d="m0 0 2 1v1l3 1-12 7-2-2-4 1 3-3z" fill="#BCC2FD"/>
<path transform="translate(688,514)" d="m0 0 1 4h2l1 4-9-1-1 5-2-4v-6l3-1 5 2z" fill="#E5ECFC"/>
<path transform="translate(843,874)" d="m0 0h1l-1 9h-2l-2 5h-1l-1-13 1 2z" fill="#F5FCFE"/>
<path transform="translate(772,507)" d="m0 0 3 4 10 25v3h-2l-3-6-2-9-6-14z" fill="#5C5BF3"/>
<path transform="translate(581,853)" d="m0 0 4 1 4 6 4 4-4 1-7-6z" fill="#B8BFFD"/>
<path transform="translate(760,764)" d="m0 0 9 5v2h3l1 3h-5l-10-7v-2z" fill="#B8BEFD"/>
<path transform="translate(402,488)" d="m0 0 2 1-1 2 5-3 2 1-11 7-8 1 4-5z" fill="#AEB5FD"/>
<path transform="translate(605,329)" d="m0 0h3l1 4-4 11-2 1-2-1 1-5h2l1-2h-2z" fill="#EAF1FC"/>
<path transform="translate(404,1169)" d="m0 0 2 2-8 12-6 3 2-5 9-11z" fill="#EAF1FC"/>
<path transform="translate(753,528)" d="m0 0h5l1 1v6l-6 1-2-6z" fill="#6C6DF4"/>
<path transform="translate(1470,748)" d="m0 0 4 2 2 6-4 2-2-2-2-1-1-6z" fill="#EAF1FC"/>
<path transform="translate(933,1165)" d="m0 0 4 1 10 7-3 1-7-1-3-3z" fill="#9AA3FD"/>
<path transform="translate(423,475)" d="m0 0h7l-1 3-9 5-2-1 1-2-2-1z" fill="#B5BBFD"/>
<path transform="translate(717,786)" d="m0 0h5l2 4-3 3h-5l-1-4z" fill="#BEC4FD"/>
<path transform="translate(363,508)" d="m0 0h5l-3 3-11 7-5 2 2-4 2-2h3v-2l4-2h3z" fill="#EAF1FC"/>
<path transform="translate(676,222)" d="m0 0 4 1 1 5-1 7h-3l-1-8z" fill="#EAF1FC"/>
<path transform="translate(1121,1483)" d="m0 0h1l1 14 2 1v5l5-1-1 2-8 1-1-21z" fill="#5A59EA"/>
<path transform="translate(653,616)" d="m0 0h5v2h-3v2l-8 5h-2l1-4z" fill="#E0E6FC"/>
<path transform="translate(1029,1449)" d="m0 0 5 1v2l6 1 2 4h2v2l-6-2-9-5z" fill="#6767F3"/>
<path transform="translate(1354,787)" d="m0 0h4l1 2v10l-3 1z" fill="#F5FCFE"/>
<path transform="translate(902,765)" d="m0 0 5 2 1 4-1 2-5-1-4-3 1-3z" fill="#5C5BF3"/>
<path transform="translate(915,625)" d="m0 0h2l8 8 1 5h-2v-2l-4-2-5-5z" fill="#6B6CF4"/>
<path transform="translate(465,1258)" d="m0 0 4 2 1 3-9 4v-5z" fill="#EFF6FE"/>
<path transform="translate(766,832)" d="m0 0 4 1v3l2 2h-11l-1-3z" fill="#F4FBFE"/>
<path transform="translate(775,819)" d="m0 0h7v1l-9 2-9 4-6 3-4 5 1-5 3-3z" fill="#EAF1FC"/>
<path transform="translate(534,578)" d="m0 0 3 1-5 5-6 3-4-1 10-7z" fill="#F5FDFF"/>
<path transform="translate(726,909)" d="m0 0 2 1-18 12-7 2 3-3z" fill="#7B7FF4"/>
<path transform="translate(990,843)" d="m0 0h6l10 7 1 3h2l-1 2-14-10z" fill="#7B7FF4"/>
<path transform="translate(569,786)" d="m0 0 5 1v2l10 1-4 2v2l-5 2 2-4h-5z" fill="#FDAB73"/>
<path transform="translate(727,181)" d="m0 0h7l-3 1v2l-3 2-10 1 5-4z" fill="#EAF1FC"/>
<path transform="translate(1389,1045)" d="m0 0h1v10l-1 2-4-1-1-5 4-1z" fill="#EBF2FC"/>
<path transform="translate(1456,951)" d="m0 0 2 1v8h-6l-1-4z" fill="#EAF1FC"/>
<path transform="translate(793,727)" d="m0 0 6 1 1 5h-7l-1-5z" fill="#BEC4FD"/>
<path transform="translate(801,228)" d="m0 0 5 2 11 7v3l-2-1v-2l-6-1-7-5z" fill="#F5FDFF"/>
<path transform="translate(352,180)" d="m0 0m-3 1 3 1v3l-4 1-4 4-4-1 6-5z" fill="#8B90F7"/>
<path transform="translate(710,1045)" d="m0 0 4 1 8 6v1h-6l-5-4z" fill="#EBF2FE"/>
<path transform="translate(1465,710)" d="m0 0 6 2 3 3-1 5-6-5z" fill="#EAF1FC"/>
<path transform="translate(642,624)" d="m0 0 3 2-12 7h-2l1-5 6-2z" fill="#E0E7FC"/>
<path transform="translate(280,534)" d="m0 0 4 1 4 5 1 4-6-2-2-2z" fill="#9CA3FA"/>
<path transform="translate(680,490)" d="m0 0h2l-1 6-4 3h-3v-3l2-2v-2z" fill="#6263F3"/>
<path transform="translate(529,412)" d="m0 0h6l-3 1v2l-4 1-1 3-7 1 4-5z" fill="#A5ADFD"/>
<path transform="translate(1153,291)" d="m0 0 1 2h-2l-2 4-4 4-7-1-3-3 4-1 2 4 5-3 4-5z" fill="#FDAE77"/>
<path transform="translate(324,191)" d="m0 0 5 1 1 4 2 1-3 1v-2l-4 2-3-1z" fill="#B0B7FB"/>
<path transform="translate(800,1258)" d="m0 0h4v2l4 1 3 3v5l-7-6-1-3-3-1z" fill="#EEF0FC"/>
<path transform="translate(1347,786)" d="m0 0 4 1 2 6-1 2h-4z" fill="#FD9E5E"/>
<path transform="translate(288,541)" d="m0 0 7 2 11 1v1h-13l-2-1v2l4 1-2 1-6-3z" fill="#AEB6FD"/>
<path transform="translate(1471,726)" d="m0 0 2 4v5l-4 2-2-7 3-1z" fill="#EAF1FC"/>
<path transform="translate(1319,1160)" d="m0 0 4 4 1 4-6 1-1-1v-5z" fill="#F5FCFE"/>
<path transform="translate(662,502)" d="m0 0 7 2-1 5-5-1-1 4-1-6h2z" fill="#DEE2FC"/>
<path transform="translate(685,493)" d="m0 0h4l1 6-3 3h-2z" fill="#5C5CF3"/>
<path transform="translate(1316,933)" d="m0 0 6 1 4 4-1 3-2-4h-8l-2-1v-2z" fill="#F4FCFE"/>
<path transform="translate(938,769)" d="m0 0m-1 1h5l-4 4-8 3h-3v-2l5-2h4z" fill="#ADB4FD"/>
<path transform="translate(1267,545)" d="m0 0 2 2-9 5-9 2 3-3z" fill="#F5FCFE"/>
<path transform="translate(488,1254)" d="m0 0h7v2h-3l-1 3h-7l2-1z" fill="#F5FDFF"/>
<path transform="translate(351,492)" d="m0 0h3l-2 4-3 2-5-1v-2z" fill="#EAF1FC"/>
<path transform="translate(597,1420)" d="m0 0 4 3 1 13h-2v-9h-3z" fill="#F5FDFF"/>
<path transform="translate(548,791)" d="m0 0h2l4 5v2h-6l-1-1v-5z" fill="#FDAE75"/>
<path transform="translate(994,503)" d="m0 0 5 4-1 4-3-1-1 2-2-2 1-4z" fill="#6363F3"/>
<path transform="translate(838,892)" d="m0 0h2l3 9-5 1z" fill="#F7F8FD"/>
<path transform="translate(785,836)" d="m0 0 4 1-1 4-1 2-2-1 1-3-4 1h-7v-1l8-2z" fill="#EAF1FC"/>
<path transform="translate(1425,696)" d="m0 0 5 2v3h2v5l-2 1-3-6v-2h-2z" fill="#EAF1FC"/>
<path transform="translate(415,480)" d="m0 0h4l-2 5-5 3-2-1 3-5z" fill="#A8B0FD"/>
<path transform="translate(327,198)" d="m0 0 2 1-1 8h-4l1-6-2-1z" fill="#A3A9F9"/>
<path transform="translate(493,138)" d="m0 0h1v15h-2l-1-2v-7z" fill="#F5FDFF"/>
<path transform="translate(1380,1006)" d="m0 0 11 6 5 5-6-2-10-7z" fill="#F67290"/>
<path transform="translate(596,535)" d="m0 0 11 2-4 2-9 1z" fill="#F7F8FD"/>
<path transform="translate(1044,531)" d="m0 0 7 1 3 4-5 1-5-3z" fill="#4541D8"/>
<path transform="translate(805,930)" d="m0 0h1l1 5v8l-2 2-2-9h2z" fill="#7B7FF4"/>
<path transform="translate(1414,1047)" d="m0 0 2 1 1 12-2 4-2-6h2z" fill="#F27197"/>
<path transform="translate(1416,1051)" d="m0 0 2 1 1 9-2 4-2-1 1-9z" fill="#F3F6FC"/>
<path transform="translate(1378 1e3)" d="m0 0 6 1 2 1-1 2-3-1 1 4-4-2z" fill="#F2F5FC"/>
<path transform="translate(723,780)" d="m0 0 3 1-2 4-7 1-1 2v-4h4z" fill="#F3F6FC"/>
<path transform="translate(1321,728)" d="m0 0 5 3 1 2h-2l-1 2-5-2 1-4z" fill="#F5FDFF"/>
<path transform="translate(940,709)" d="m0 0h3v8l-2-1-2 2v-8z" fill="#F2F9FE"/>
<path transform="translate(732,498)" d="m0 0v3l-3 5h-3l-1-5 6-2z" fill="#E9EFFC"/>
<path transform="translate(1287,978)" d="m0 0 1 2 6 3v2l-8-2v-4z" fill="#DD5482"/>
<path transform="translate(1046,960)" d="m0 0 2 1-6 5-3 3h-5l3-3z" fill="#DDE3FC"/>
<path transform="translate(771,846)" d="m0 0h7v5l-7-2z" fill="#F0F4FC"/>
<path transform="translate(1319,749)" d="m0 0 3 1 1 3-3 3-3-1-1-4z" fill="#F5FCFE"/>
<path transform="translate(1450,706)" d="m0 0 5 1 2 3-3 1-7-1v-3z" fill="#EAF1FC"/>
<path transform="translate(480,403)" d="m0 0 1 4-6 4h-3l5-7z" fill="#4742D3"/>
<path transform="translate(385,1302)" d="m0 0h3v2h-2l-2 4-5 5-2-1 7-8z" fill="#DCE2FC"/>
<path transform="translate(294,1045)" d="m0 0 7 2 1 3-4 1-4-2z" fill="#F0F3FC"/>
<path transform="translate(787,727)" d="m0 0h3v7l-5-2 1-4z" fill="#BBC1FD"/>
<path transform="translate(939,644)" d="m0 0h2l1 2 3 1 3 3 2 1v2l-7-2v-2h-2z" fill="#878CF6"/>
<path transform="translate(744,524)" d="m0 0h1v17h-1l-2-7-1-4 2-1z" fill="#8D92F7"/>
<path transform="translate(584,129)" d="m0 0 2 4v9l-2-2-2-9z" fill="#EAF1FC"/>
<path transform="translate(996,873)" d="m0 0 5 1-1 4-4 2 1-5-4-1z" fill="#F0F4FC"/>
<path transform="translate(1042,858)" d="m0 0 4 1 6 2v2l2 1-4 1-4-2v-2h-2v-2z" fill="#F98067"/>
<path transform="translate(428,824)" d="m0 0 4 4 4 6-4-1-4-4z" fill="#D9E0FC"/>
<path transform="translate(1338,796)" d="m0 0h2l4 8 3 4-5-2-1-3-2-1z" fill="#FEC084"/>
<path transform="translate(705,781)" d="m0 0h5l-1 5-5-1z" fill="#BEC4FD"/>
<path transform="translate(590,366)" d="m0 0 2 1-9 11-1-2 4-6z" fill="#EAF1FC"/>
</svg>
